<mxfile host="app.diagrams.net" agent="Mozilla/5.0 (Windows NT 10.0; Win64; x64) AppleWebKit/537.36 (KHTML, like Gecko) Chrome/135.0.0.0 Safari/537.36" version="27.0.3">
  <diagram name="Page-1" id="bcbmdQSb0YX486mvRhEC">
    <mxGraphModel dx="1281" dy="1782" grid="1" gridSize="10" guides="1" tooltips="1" connect="1" arrows="1" fold="1" page="1" pageScale="1" pageWidth="850" pageHeight="1100" background="#ffffff" math="0" shadow="0">
      <root>
        <mxCell id="0" />
        <mxCell id="1" parent="0" />
        <mxCell id="XLAAWndn-XQMQ2BF4GBF-1" value="MUX" style="rounded=1;whiteSpace=wrap;html=1;arcSize=50;rotation=90;direction=east;fontColor=light-dark(#000000,#EDEDED);labelBackgroundColor=none;" parent="1" vertex="1">
          <mxGeometry x="180" y="330" width="70" height="20" as="geometry" />
        </mxCell>
        <mxCell id="XLAAWndn-XQMQ2BF4GBF-2" value="" style="endArrow=classic;html=1;rounded=0;exitX=0.5;exitY=0;exitDx=0;exitDy=0;" parent="1" source="XLAAWndn-XQMQ2BF4GBF-1" edge="1">
          <mxGeometry width="50" height="50" relative="1" as="geometry">
            <mxPoint x="230" y="340" as="sourcePoint" />
            <mxPoint x="280" y="340" as="targetPoint" />
          </mxGeometry>
        </mxCell>
        <mxCell id="XLAAWndn-XQMQ2BF4GBF-3" value="PC" style="rounded=0;whiteSpace=wrap;html=1;rotation=0;fontColor=light-dark(#000000,#EDEDED);labelBackgroundColor=none;" parent="1" vertex="1">
          <mxGeometry x="280" y="275" width="60" height="130" as="geometry" />
        </mxCell>
        <mxCell id="XLAAWndn-XQMQ2BF4GBF-4" value="Instruction/Data [31:0]" style="rounded=0;whiteSpace=wrap;html=1;fontColor=light-dark(#000000,#EDEDED);labelBackgroundColor=none;" parent="1" vertex="1">
          <mxGeometry x="1215" y="730" width="120" height="140" as="geometry" />
        </mxCell>
        <mxCell id="XLAAWndn-XQMQ2BF4GBF-5" value="Read&lt;div&gt;Address&lt;/div&gt;" style="text;html=1;align=center;verticalAlign=middle;resizable=0;points=[];autosize=1;strokeColor=none;fillColor=none;fontColor=light-dark(#000000,#EDEDED);labelBackgroundColor=none;" parent="1" vertex="1">
          <mxGeometry x="1215" y="740" width="70" height="40" as="geometry" />
        </mxCell>
        <mxCell id="XLAAWndn-XQMQ2BF4GBF-6" value="&lt;div&gt;Memory&lt;/div&gt;" style="text;html=1;align=center;verticalAlign=middle;resizable=0;points=[];autosize=1;strokeColor=none;fillColor=none;fontColor=light-dark(#000000,#EDEDED);labelBackgroundColor=none;" parent="1" vertex="1">
          <mxGeometry x="1265" y="833" width="70" height="30" as="geometry" />
        </mxCell>
        <mxCell id="XLAAWndn-XQMQ2BF4GBF-8" value="" style="endArrow=classic;html=1;rounded=0;" parent="1" edge="1">
          <mxGeometry width="50" height="50" relative="1" as="geometry">
            <mxPoint x="480" y="370" as="sourcePoint" />
            <mxPoint x="580" y="369.6" as="targetPoint" />
          </mxGeometry>
        </mxCell>
        <mxCell id="XLAAWndn-XQMQ2BF4GBF-10" value="" style="endArrow=classic;html=1;rounded=0;" parent="1" edge="1">
          <mxGeometry width="50" height="50" relative="1" as="geometry">
            <mxPoint x="425" y="210" as="sourcePoint" />
            <mxPoint x="500" y="210" as="targetPoint" />
          </mxGeometry>
        </mxCell>
        <mxCell id="XLAAWndn-XQMQ2BF4GBF-11" value="MUX" style="rounded=1;whiteSpace=wrap;html=1;arcSize=50;rotation=90;direction=east;fontColor=light-dark(#000000,#EDEDED);labelBackgroundColor=none;" parent="1" vertex="1">
          <mxGeometry x="480" y="188" width="70" height="20" as="geometry" />
        </mxCell>
        <mxCell id="XLAAWndn-XQMQ2BF4GBF-14" value="" style="endArrow=classic;html=1;rounded=0;" parent="1" edge="1">
          <mxGeometry width="50" height="50" relative="1" as="geometry">
            <mxPoint x="425" y="190" as="sourcePoint" />
            <mxPoint x="500" y="190" as="targetPoint" />
          </mxGeometry>
        </mxCell>
        <mxCell id="XLAAWndn-XQMQ2BF4GBF-15" value="4" style="text;html=1;align=center;verticalAlign=middle;resizable=0;points=[];autosize=1;strokeColor=none;fillColor=none;" parent="1" vertex="1">
          <mxGeometry x="425" y="158" width="30" height="30" as="geometry" />
        </mxCell>
        <mxCell id="XLAAWndn-XQMQ2BF4GBF-16" value="2" style="text;html=1;align=center;verticalAlign=middle;resizable=0;points=[];autosize=1;strokeColor=none;fillColor=none;" parent="1" vertex="1">
          <mxGeometry x="425" y="208" width="30" height="30" as="geometry" />
        </mxCell>
        <mxCell id="XLAAWndn-XQMQ2BF4GBF-17" value="Decompression&lt;div&gt;Unit&lt;/div&gt;" style="whiteSpace=wrap;html=1;aspect=fixed;" parent="1" vertex="1">
          <mxGeometry x="580" y="310" width="130" height="130" as="geometry" />
        </mxCell>
        <mxCell id="XLAAWndn-XQMQ2BF4GBF-19" value="" style="endArrow=none;html=1;rounded=0;" parent="1" edge="1">
          <mxGeometry width="50" height="50" relative="1" as="geometry">
            <mxPoint x="540" y="370" as="sourcePoint" />
            <mxPoint x="540" y="280" as="targetPoint" />
          </mxGeometry>
        </mxCell>
        <mxCell id="XLAAWndn-XQMQ2BF4GBF-20" value="" style="endArrow=none;html=1;rounded=0;" parent="1" edge="1">
          <mxGeometry width="50" height="50" relative="1" as="geometry">
            <mxPoint x="540" y="280" as="sourcePoint" />
            <mxPoint x="540" y="280" as="targetPoint" />
          </mxGeometry>
        </mxCell>
        <mxCell id="XLAAWndn-XQMQ2BF4GBF-21" value="" style="endArrow=classic;html=1;rounded=0;entryX=0.996;entryY=0.684;entryDx=0;entryDy=0;entryPerimeter=0;" parent="1" edge="1">
          <mxGeometry width="50" height="50" relative="1" as="geometry">
            <mxPoint x="540.24" y="280" as="sourcePoint" />
            <mxPoint x="539.9999999999999" y="263.6800000000003" as="targetPoint" />
          </mxGeometry>
        </mxCell>
        <mxCell id="XLAAWndn-XQMQ2BF4GBF-22" value="" style="shape=stencil(tZXRjoIwEEW/pq+bQsPq6wb1PyqOS2NtSdvV3b93oGCs0I0IJISkc7mHIb1DCcttySsgKS0J25A0TSjFO66vT2tuKyicL164EXwvwSvWGX2Cqzi4liFUCUa4WmVbQr/wmfpieaGVQojQygbKg44wLhR66a+Hta//C1YV8s/gwLRNNtXd68yPbAFqskSnIbPre95OZ6KGvSaL7NQ81ORNJsuxEgsxy/e8OH0b/aMOfVdUO2oDA8JdFlL6AYt9YMXruesJnXzWF/h/moawnVsK9eC+/wxaP5sKWI0FPGWMTvOvx9qz0P+ZTfOzsf7Q/sL+FVLbaHKwHgkPHguDmWs8vcQ2VX+ONIUb);whiteSpace=wrap;html=1;" parent="1" vertex="1">
          <mxGeometry x="550" y="110" width="90" height="100" as="geometry" />
        </mxCell>
        <mxCell id="XLAAWndn-XQMQ2BF4GBF-23" value="" style="endArrow=none;html=1;rounded=0;" parent="1" edge="1">
          <mxGeometry width="50" height="50" relative="1" as="geometry">
            <mxPoint x="360" y="340" as="sourcePoint" />
            <mxPoint x="360" y="120" as="targetPoint" />
          </mxGeometry>
        </mxCell>
        <mxCell id="XLAAWndn-XQMQ2BF4GBF-24" value="" style="endArrow=classic;html=1;rounded=0;entryX=0;entryY=0.1;entryDx=0;entryDy=0;entryPerimeter=0;" parent="1" target="XLAAWndn-XQMQ2BF4GBF-22" edge="1">
          <mxGeometry width="50" height="50" relative="1" as="geometry">
            <mxPoint x="360" y="120" as="sourcePoint" />
            <mxPoint x="410" y="70" as="targetPoint" />
          </mxGeometry>
        </mxCell>
        <mxCell id="XLAAWndn-XQMQ2BF4GBF-25" value="" style="endArrow=classic;html=1;rounded=0;exitX=0.5;exitY=0;exitDx=0;exitDy=0;entryX=0;entryY=0.9;entryDx=0;entryDy=0;entryPerimeter=0;" parent="1" source="XLAAWndn-XQMQ2BF4GBF-11" target="XLAAWndn-XQMQ2BF4GBF-22" edge="1">
          <mxGeometry width="50" height="50" relative="1" as="geometry">
            <mxPoint x="530" y="208" as="sourcePoint" />
            <mxPoint x="580" y="158" as="targetPoint" />
          </mxGeometry>
        </mxCell>
        <mxCell id="XLAAWndn-XQMQ2BF4GBF-26" value="Adder" style="text;html=1;align=center;verticalAlign=middle;resizable=0;points=[];autosize=1;strokeColor=none;fillColor=none;" parent="1" vertex="1">
          <mxGeometry x="580" y="145" width="60" height="30" as="geometry" />
        </mxCell>
        <mxCell id="XLAAWndn-XQMQ2BF4GBF-27" value="" style="endArrow=none;html=1;rounded=0;" parent="1" edge="1">
          <mxGeometry width="50" height="50" relative="1" as="geometry">
            <mxPoint x="640" y="160" as="sourcePoint" />
            <mxPoint x="680" y="160" as="targetPoint" />
          </mxGeometry>
        </mxCell>
        <mxCell id="XLAAWndn-XQMQ2BF4GBF-28" value="" style="endArrow=none;html=1;rounded=0;" parent="1" edge="1">
          <mxGeometry width="50" height="50" relative="1" as="geometry">
            <mxPoint x="680" y="160" as="sourcePoint" />
            <mxPoint x="680" y="80" as="targetPoint" />
          </mxGeometry>
        </mxCell>
        <mxCell id="XLAAWndn-XQMQ2BF4GBF-29" value="" style="endArrow=none;html=1;rounded=0;" parent="1" edge="1">
          <mxGeometry width="50" height="50" relative="1" as="geometry">
            <mxPoint x="180" y="80" as="sourcePoint" />
            <mxPoint x="680" y="80" as="targetPoint" />
          </mxGeometry>
        </mxCell>
        <mxCell id="XLAAWndn-XQMQ2BF4GBF-30" value="" style="endArrow=none;html=1;rounded=0;" parent="1" edge="1">
          <mxGeometry width="50" height="50" relative="1" as="geometry">
            <mxPoint x="180" y="320" as="sourcePoint" />
            <mxPoint x="180" y="80" as="targetPoint" />
          </mxGeometry>
        </mxCell>
        <mxCell id="XLAAWndn-XQMQ2BF4GBF-31" value="" style="endArrow=classic;html=1;rounded=0;" parent="1" edge="1">
          <mxGeometry width="50" height="50" relative="1" as="geometry">
            <mxPoint x="180" y="320" as="sourcePoint" />
            <mxPoint x="200" y="320" as="targetPoint" />
          </mxGeometry>
        </mxCell>
        <mxCell id="XLAAWndn-XQMQ2BF4GBF-32" value="Inst[1:0]" style="text;html=1;align=center;verticalAlign=middle;resizable=0;points=[];autosize=1;strokeColor=none;fillColor=none;rotation=0;fontSize=9;" parent="1" vertex="1">
          <mxGeometry x="480" y="320" width="60" height="20" as="geometry" />
        </mxCell>
        <mxCell id="XLAAWndn-XQMQ2BF4GBF-33" value="" style="rounded=0;whiteSpace=wrap;html=1;rotation=90;" parent="1" vertex="1">
          <mxGeometry x="565" y="310" width="530" height="60" as="geometry" />
        </mxCell>
        <mxCell id="XLAAWndn-XQMQ2BF4GBF-34" value="" style="endArrow=classic;html=1;rounded=0;entryX=0.157;entryY=1;entryDx=0;entryDy=0;entryPerimeter=0;" parent="1" edge="1">
          <mxGeometry width="50" height="50" relative="1" as="geometry">
            <mxPoint x="680" y="159.57" as="sourcePoint" />
            <mxPoint x="800" y="159.77999999999992" as="targetPoint" />
          </mxGeometry>
        </mxCell>
        <mxCell id="XLAAWndn-XQMQ2BF4GBF-36" value="" style="endArrow=classic;html=1;rounded=0;" parent="1" edge="1">
          <mxGeometry width="50" height="50" relative="1" as="geometry">
            <mxPoint x="360" y="285" as="sourcePoint" />
            <mxPoint x="800" y="285" as="targetPoint" />
          </mxGeometry>
        </mxCell>
        <mxCell id="XLAAWndn-XQMQ2BF4GBF-37" value="IF/ID" style="text;html=1;align=center;verticalAlign=middle;resizable=0;points=[];autosize=1;strokeColor=none;fillColor=none;" parent="1" vertex="1">
          <mxGeometry x="800" y="38" width="50" height="30" as="geometry" />
        </mxCell>
        <mxCell id="XLAAWndn-XQMQ2BF4GBF-38" value="" style="rounded=0;whiteSpace=wrap;html=1;fontColor=light-dark(#000000,#EDEDED);labelBackgroundColor=none;" parent="1" vertex="1">
          <mxGeometry x="1005" y="200" width="120" height="200" as="geometry" />
        </mxCell>
        <mxCell id="XLAAWndn-XQMQ2BF4GBF-39" value="Read&lt;br&gt;Register 1" style="text;html=1;align=center;verticalAlign=middle;resizable=0;points=[];autosize=1;strokeColor=none;fillColor=none;fontColor=light-dark(#000000,#EDEDED);labelBackgroundColor=none;" parent="1" vertex="1">
          <mxGeometry x="1000" y="220" width="80" height="40" as="geometry" />
        </mxCell>
        <mxCell id="XLAAWndn-XQMQ2BF4GBF-40" value="Read&lt;br&gt;Register 2" style="text;html=1;align=center;verticalAlign=middle;resizable=0;points=[];autosize=1;strokeColor=none;fillColor=none;fontColor=light-dark(#000000,#EDEDED);labelBackgroundColor=none;" parent="1" vertex="1">
          <mxGeometry x="1005" y="260" width="80" height="40" as="geometry" />
        </mxCell>
        <mxCell id="XLAAWndn-XQMQ2BF4GBF-41" value="Write&lt;br&gt;Register&amp;nbsp;" style="text;html=1;align=center;verticalAlign=middle;resizable=0;points=[];autosize=1;strokeColor=none;fillColor=none;fontColor=light-dark(#000000,#EDEDED);labelBackgroundColor=none;" parent="1" vertex="1">
          <mxGeometry x="1010" y="310" width="70" height="40" as="geometry" />
        </mxCell>
        <mxCell id="XLAAWndn-XQMQ2BF4GBF-42" value="Write Data" style="text;html=1;align=center;verticalAlign=middle;resizable=0;points=[];autosize=1;strokeColor=none;fillColor=none;fontColor=light-dark(#000000,#EDEDED);labelBackgroundColor=none;" parent="1" vertex="1">
          <mxGeometry x="1005" y="360" width="80" height="30" as="geometry" />
        </mxCell>
        <mxCell id="XLAAWndn-XQMQ2BF4GBF-43" value="Read&lt;br&gt;Data 1" style="text;html=1;align=center;verticalAlign=middle;resizable=0;points=[];autosize=1;strokeColor=none;fillColor=none;fontColor=light-dark(#000000,#EDEDED);labelBackgroundColor=none;" parent="1" vertex="1">
          <mxGeometry x="1065" y="230" width="60" height="40" as="geometry" />
        </mxCell>
        <mxCell id="XLAAWndn-XQMQ2BF4GBF-44" value="Read&lt;br&gt;Data 2" style="text;html=1;align=center;verticalAlign=middle;resizable=0;points=[];autosize=1;strokeColor=none;fillColor=none;fontColor=light-dark(#000000,#EDEDED);labelBackgroundColor=none;" parent="1" vertex="1">
          <mxGeometry x="1065" y="290" width="60" height="40" as="geometry" />
        </mxCell>
        <mxCell id="XLAAWndn-XQMQ2BF4GBF-46" value="Inst[19:15]" style="text;html=1;align=center;verticalAlign=middle;resizable=0;points=[];autosize=1;strokeColor=none;fillColor=none;" parent="1" vertex="1">
          <mxGeometry x="910" y="210" width="80" height="30" as="geometry" />
        </mxCell>
        <mxCell id="XLAAWndn-XQMQ2BF4GBF-48" value="Inst[24:20]" style="text;html=1;align=center;verticalAlign=middle;resizable=0;points=[];autosize=1;strokeColor=none;fillColor=none;" parent="1" vertex="1">
          <mxGeometry x="910" y="250" width="80" height="30" as="geometry" />
        </mxCell>
        <mxCell id="XLAAWndn-XQMQ2BF4GBF-49" value="&lt;font style=&quot;&quot;&gt;Control&lt;/font&gt;" style="ellipse;whiteSpace=wrap;html=1;fillColor=none;fontColor=light-dark(#000000,#EDEDED);strokeColor=#006EAF;labelBackgroundColor=none;" parent="1" vertex="1">
          <mxGeometry x="960" y="-80" width="110" height="160" as="geometry" />
        </mxCell>
        <mxCell id="XLAAWndn-XQMQ2BF4GBF-50" value="" style="endArrow=none;html=1;rounded=0;" parent="1" edge="1">
          <mxGeometry width="50" height="50" relative="1" as="geometry">
            <mxPoint x="860" y="300" as="sourcePoint" />
            <mxPoint x="900" y="300" as="targetPoint" />
          </mxGeometry>
        </mxCell>
        <mxCell id="XLAAWndn-XQMQ2BF4GBF-51" value="" style="endArrow=none;html=1;rounded=0;" parent="1" edge="1">
          <mxGeometry width="50" height="50" relative="1" as="geometry">
            <mxPoint x="900" y="300" as="sourcePoint" />
            <mxPoint x="900" y="240" as="targetPoint" />
          </mxGeometry>
        </mxCell>
        <mxCell id="XLAAWndn-XQMQ2BF4GBF-52" value="" style="endArrow=classic;html=1;rounded=0;entryX=0.033;entryY=0.499;entryDx=0;entryDy=0;entryPerimeter=0;" parent="1" target="XLAAWndn-XQMQ2BF4GBF-39" edge="1">
          <mxGeometry width="50" height="50" relative="1" as="geometry">
            <mxPoint x="900" y="240" as="sourcePoint" />
            <mxPoint x="950" y="190" as="targetPoint" />
          </mxGeometry>
        </mxCell>
        <mxCell id="XLAAWndn-XQMQ2BF4GBF-53" value="" style="endArrow=classic;html=1;rounded=0;entryX=-0.023;entryY=0.478;entryDx=0;entryDy=0;entryPerimeter=0;" parent="1" target="XLAAWndn-XQMQ2BF4GBF-40" edge="1">
          <mxGeometry width="50" height="50" relative="1" as="geometry">
            <mxPoint x="900" y="280" as="sourcePoint" />
            <mxPoint x="950" y="230" as="targetPoint" />
          </mxGeometry>
        </mxCell>
        <mxCell id="XLAAWndn-XQMQ2BF4GBF-54" value="" style="endArrow=none;html=1;rounded=0;" parent="1" edge="1">
          <mxGeometry width="50" height="50" relative="1" as="geometry">
            <mxPoint x="900" y="238" as="sourcePoint" />
            <mxPoint x="900" as="targetPoint" />
          </mxGeometry>
        </mxCell>
        <mxCell id="XLAAWndn-XQMQ2BF4GBF-56" value="" style="endArrow=classic;html=1;rounded=0;entryX=0;entryY=0.5;entryDx=0;entryDy=0;" parent="1" target="XLAAWndn-XQMQ2BF4GBF-49" edge="1">
          <mxGeometry width="50" height="50" relative="1" as="geometry">
            <mxPoint x="900" as="sourcePoint" />
            <mxPoint x="920" as="targetPoint" />
            <Array as="points">
              <mxPoint x="910" />
            </Array>
          </mxGeometry>
        </mxCell>
        <mxCell id="XLAAWndn-XQMQ2BF4GBF-57" value="Inst[6:0]" style="text;html=1;align=center;verticalAlign=middle;resizable=0;points=[];autosize=1;strokeColor=none;fillColor=none;" parent="1" vertex="1">
          <mxGeometry x="890" y="-30" width="70" height="30" as="geometry" />
        </mxCell>
        <mxCell id="XLAAWndn-XQMQ2BF4GBF-58" value="" style="endArrow=none;html=1;rounded=0;" parent="1" edge="1">
          <mxGeometry width="50" height="50" relative="1" as="geometry">
            <mxPoint x="900" y="520" as="sourcePoint" />
            <mxPoint x="900" y="300" as="targetPoint" />
          </mxGeometry>
        </mxCell>
        <mxCell id="XLAAWndn-XQMQ2BF4GBF-59" value="" style="rounded=0;whiteSpace=wrap;html=1;rotation=90;" parent="1" vertex="1">
          <mxGeometry x="1010" y="310" width="530" height="60" as="geometry" />
        </mxCell>
        <mxCell id="XLAAWndn-XQMQ2BF4GBF-60" value="EX" style="rounded=0;whiteSpace=wrap;rotation=0;fillColor=none;fontColor=light-dark(#000000,#FFFFFF);strokeColor=#006EAF;labelBorderColor=none;labelBackgroundColor=none;" parent="1" vertex="1">
          <mxGeometry x="1245" y="20" width="60" height="60" as="geometry" />
        </mxCell>
        <mxCell id="XLAAWndn-XQMQ2BF4GBF-63" value="M" style="rounded=0;whiteSpace=wrap;rotation=0;fillColor=none;fontColor=light-dark(#000000,#FFFFFF);strokeColor=#006EAF;labelBorderColor=none;labelBackgroundColor=none;" parent="1" vertex="1">
          <mxGeometry x="1245" y="-40" width="60" height="60" as="geometry" />
        </mxCell>
        <mxCell id="XLAAWndn-XQMQ2BF4GBF-64" value="WB" style="rounded=0;whiteSpace=wrap;rotation=0;fillColor=none;fontColor=light-dark(#000000,#FFFFFF);strokeColor=#006EAF;labelBorderColor=none;labelBackgroundColor=none;" parent="1" vertex="1">
          <mxGeometry x="1245" y="-100" width="60" height="60" as="geometry" />
        </mxCell>
        <mxCell id="XLAAWndn-XQMQ2BF4GBF-66" value="" style="endArrow=classic;html=1;rounded=0;entryX=0;entryY=0.5;entryDx=0;entryDy=0;fillColor=#1ba1e2;strokeColor=#006EAF;" parent="1" target="XLAAWndn-XQMQ2BF4GBF-64" edge="1">
          <mxGeometry width="50" height="50" relative="1" as="geometry">
            <mxPoint x="1190" y="-70" as="sourcePoint" />
            <mxPoint x="1127.5" y="-62.5" as="targetPoint" />
          </mxGeometry>
        </mxCell>
        <mxCell id="XLAAWndn-XQMQ2BF4GBF-67" value="" style="endArrow=classic;html=1;rounded=0;fillColor=#1ba1e2;strokeColor=#006EAF;" parent="1" edge="1">
          <mxGeometry width="50" height="50" relative="1" as="geometry">
            <mxPoint x="1070" y="-1" as="sourcePoint" />
            <mxPoint x="1120" y="-1" as="targetPoint" />
          </mxGeometry>
        </mxCell>
        <mxCell id="XLAAWndn-XQMQ2BF4GBF-68" value="" style="endArrow=classic;html=1;rounded=0;fillColor=#1ba1e2;strokeColor=#006EAF;" parent="1" edge="1">
          <mxGeometry width="50" height="50" relative="1" as="geometry">
            <mxPoint x="1190" y="50" as="sourcePoint" />
            <mxPoint x="1240" y="50" as="targetPoint" />
          </mxGeometry>
        </mxCell>
        <mxCell id="XLAAWndn-XQMQ2BF4GBF-69" value="" style="endArrow=classic;html=1;rounded=0;" parent="1" edge="1">
          <mxGeometry width="50" height="50" relative="1" as="geometry">
            <mxPoint x="900" y="520" as="sourcePoint" />
            <mxPoint x="1000" y="520" as="targetPoint" />
          </mxGeometry>
        </mxCell>
        <mxCell id="XLAAWndn-XQMQ2BF4GBF-70" value="Imm&lt;br&gt;Gen" style="ellipse;whiteSpace=wrap;html=1;fontColor=light-dark(#000000,#EDEDED);labelBackgroundColor=none;" parent="1" vertex="1">
          <mxGeometry x="1000" y="460" width="70" height="110" as="geometry" />
        </mxCell>
        <mxCell id="XLAAWndn-XQMQ2BF4GBF-71" value="Inst[31:0]" style="text;html=1;align=center;verticalAlign=middle;resizable=0;points=[];autosize=1;strokeColor=none;fillColor=none;" parent="1" vertex="1">
          <mxGeometry x="915" y="490" width="70" height="30" as="geometry" />
        </mxCell>
        <mxCell id="XLAAWndn-XQMQ2BF4GBF-72" value="" style="endArrow=classic;html=1;rounded=0;entryX=0.829;entryY=0.986;entryDx=0;entryDy=0;entryPerimeter=0;" parent="1" target="XLAAWndn-XQMQ2BF4GBF-59" edge="1">
          <mxGeometry width="50" height="50" relative="1" as="geometry">
            <mxPoint x="1070" y="514.6" as="sourcePoint" />
            <mxPoint x="1240" y="514" as="targetPoint" />
          </mxGeometry>
        </mxCell>
        <mxCell id="XLAAWndn-XQMQ2BF4GBF-73" value="ID/EX" style="text;html=1;align=center;verticalAlign=middle;resizable=0;points=[];autosize=1;strokeColor=none;fillColor=none;" parent="1" vertex="1">
          <mxGeometry x="1250" y="-130" width="50" height="30" as="geometry" />
        </mxCell>
        <mxCell id="XLAAWndn-XQMQ2BF4GBF-74" value="" style="endArrow=none;html=1;rounded=0;" parent="1" edge="1">
          <mxGeometry width="50" height="50" relative="1" as="geometry">
            <mxPoint x="930" y="420" as="sourcePoint" />
            <mxPoint x="930" y="240" as="targetPoint" />
          </mxGeometry>
        </mxCell>
        <mxCell id="XLAAWndn-XQMQ2BF4GBF-75" value="" style="endArrow=classic;html=1;rounded=0;entryX=0.649;entryY=1.007;entryDx=0;entryDy=0;entryPerimeter=0;" parent="1" target="XLAAWndn-XQMQ2BF4GBF-59" edge="1">
          <mxGeometry width="50" height="50" relative="1" as="geometry">
            <mxPoint x="930" y="420" as="sourcePoint" />
            <mxPoint x="1240" y="420" as="targetPoint" />
          </mxGeometry>
        </mxCell>
        <mxCell id="XLAAWndn-XQMQ2BF4GBF-77" value="" style="endArrow=none;html=1;rounded=0;" parent="1" edge="1">
          <mxGeometry width="50" height="50" relative="1" as="geometry">
            <mxPoint x="970" y="460" as="sourcePoint" />
            <mxPoint x="970" y="280" as="targetPoint" />
          </mxGeometry>
        </mxCell>
        <mxCell id="XLAAWndn-XQMQ2BF4GBF-78" value="" style="endArrow=classic;html=1;rounded=0;entryX=0.726;entryY=0.994;entryDx=0;entryDy=0;entryPerimeter=0;" parent="1" target="XLAAWndn-XQMQ2BF4GBF-59" edge="1">
          <mxGeometry width="50" height="50" relative="1" as="geometry">
            <mxPoint x="970" y="460" as="sourcePoint" />
            <mxPoint x="1240" y="460" as="targetPoint" />
          </mxGeometry>
        </mxCell>
        <mxCell id="XLAAWndn-XQMQ2BF4GBF-79" value="" style="endArrow=classic;html=1;rounded=0;" parent="1" edge="1">
          <mxGeometry width="50" height="50" relative="1" as="geometry">
            <mxPoint x="1125" y="250" as="sourcePoint" />
            <mxPoint x="1244" y="250" as="targetPoint" />
          </mxGeometry>
        </mxCell>
        <mxCell id="XLAAWndn-XQMQ2BF4GBF-80" value="" style="endArrow=classic;html=1;rounded=0;entryX=0.463;entryY=1.002;entryDx=0;entryDy=0;entryPerimeter=0;" parent="1" target="XLAAWndn-XQMQ2BF4GBF-59" edge="1">
          <mxGeometry width="50" height="50" relative="1" as="geometry">
            <mxPoint x="1125" y="320" as="sourcePoint" />
            <mxPoint x="1240" y="320" as="targetPoint" />
          </mxGeometry>
        </mxCell>
        <mxCell id="XLAAWndn-XQMQ2BF4GBF-81" value="" style="endArrow=none;html=1;rounded=0;" parent="1" edge="1">
          <mxGeometry width="50" height="50" relative="1" as="geometry">
            <mxPoint x="900" y="600" as="sourcePoint" />
            <mxPoint x="900" y="520" as="targetPoint" />
          </mxGeometry>
        </mxCell>
        <mxCell id="XLAAWndn-XQMQ2BF4GBF-82" value="" style="endArrow=classic;html=1;rounded=0;entryX=0.99;entryY=0.985;entryDx=0;entryDy=0;entryPerimeter=0;" parent="1" target="XLAAWndn-XQMQ2BF4GBF-59" edge="1">
          <mxGeometry width="50" height="50" relative="1" as="geometry">
            <mxPoint x="900" y="600" as="sourcePoint" />
            <mxPoint x="1240" y="600" as="targetPoint" />
          </mxGeometry>
        </mxCell>
        <mxCell id="XLAAWndn-XQMQ2BF4GBF-83" value="Inst[11:7]" style="text;html=1;align=center;verticalAlign=middle;resizable=0;points=[];autosize=1;strokeColor=none;fillColor=none;" parent="1" vertex="1">
          <mxGeometry x="1160" y="600" width="70" height="30" as="geometry" />
        </mxCell>
        <mxCell id="XLAAWndn-XQMQ2BF4GBF-84" value="" style="endArrow=classic;html=1;rounded=0;" parent="1" edge="1">
          <mxGeometry width="50" height="50" relative="1" as="geometry">
            <mxPoint x="860" y="160" as="sourcePoint" />
            <mxPoint x="1240" y="160" as="targetPoint" />
          </mxGeometry>
        </mxCell>
        <mxCell id="XLAAWndn-XQMQ2BF4GBF-85" value="" style="endArrow=none;html=1;rounded=0;" parent="1" edge="1">
          <mxGeometry width="50" height="50" relative="1" as="geometry">
            <mxPoint x="860" y="288" as="sourcePoint" />
            <mxPoint x="880" y="288" as="targetPoint" />
          </mxGeometry>
        </mxCell>
        <mxCell id="XLAAWndn-XQMQ2BF4GBF-86" value="" style="endArrow=none;html=1;rounded=0;" parent="1" edge="1">
          <mxGeometry width="50" height="50" relative="1" as="geometry">
            <mxPoint x="880" y="288" as="sourcePoint" />
            <mxPoint x="880" y="180" as="targetPoint" />
          </mxGeometry>
        </mxCell>
        <mxCell id="XLAAWndn-XQMQ2BF4GBF-87" value="" style="endArrow=classic;html=1;rounded=0;" parent="1" edge="1">
          <mxGeometry width="50" height="50" relative="1" as="geometry">
            <mxPoint x="880" y="180" as="sourcePoint" />
            <mxPoint x="1240" y="180" as="targetPoint" />
          </mxGeometry>
        </mxCell>
        <mxCell id="XLAAWndn-XQMQ2BF4GBF-88" value="PC_Next" style="text;html=1;align=center;verticalAlign=middle;resizable=0;points=[];autosize=1;strokeColor=none;fillColor=none;" parent="1" vertex="1">
          <mxGeometry x="1165" y="128" width="70" height="30" as="geometry" />
        </mxCell>
        <mxCell id="XLAAWndn-XQMQ2BF4GBF-89" value="PC" style="text;html=1;align=center;verticalAlign=middle;resizable=0;points=[];autosize=1;strokeColor=none;fillColor=none;" parent="1" vertex="1">
          <mxGeometry x="1190" y="185" width="40" height="30" as="geometry" />
        </mxCell>
        <mxCell id="XLAAWndn-XQMQ2BF4GBF-90" value="Imm_gen" style="text;html=1;align=center;verticalAlign=middle;resizable=0;points=[];autosize=1;strokeColor=none;fillColor=none;" parent="1" vertex="1">
          <mxGeometry x="1165" y="488" width="70" height="30" as="geometry" />
        </mxCell>
        <mxCell id="XLAAWndn-XQMQ2BF4GBF-91" value="Rs1" style="text;html=1;align=center;verticalAlign=middle;resizable=0;points=[];autosize=1;strokeColor=none;fillColor=none;" parent="1" vertex="1">
          <mxGeometry x="1190" y="388" width="40" height="30" as="geometry" />
        </mxCell>
        <mxCell id="XLAAWndn-XQMQ2BF4GBF-92" value="Rs2" style="text;html=1;align=center;verticalAlign=middle;resizable=0;points=[];autosize=1;strokeColor=none;fillColor=none;" parent="1" vertex="1">
          <mxGeometry x="1190" y="428" width="40" height="30" as="geometry" />
        </mxCell>
        <mxCell id="XLAAWndn-XQMQ2BF4GBF-94" value="" style="shape=stencil(tZXRjoIwEEW/pq+bQsPq6wb1PyqOS2NtSdvV3b93oGCs0I0IJISkc7mHIb1DCcttySsgKS0J25A0TSjFO66vT2tuKyicL164EXwvwSvWGX2Cqzi4liFUCUa4WmVbQr/wmfpieaGVQojQygbKg44wLhR66a+Hta//C1YV8s/gwLRNNtXd68yPbAFqskSnIbPre95OZ6KGvSaL7NQ81ORNJsuxEgsxy/e8OH0b/aMOfVdUO2oDA8JdFlL6AYt9YMXruesJnXzWF/h/moawnVsK9eC+/wxaP5sKWI0FPGWMTvOvx9qz0P+ZTfOzsf7Q/sL+FVLbaHKwHgkPHguDmWs8vcQ2VX+ONIUb);whiteSpace=wrap;html=1;" parent="1" vertex="1">
          <mxGeometry x="1460" y="170" width="90" height="100" as="geometry" />
        </mxCell>
        <mxCell id="XLAAWndn-XQMQ2BF4GBF-95" value="Adder" style="text;html=1;align=center;verticalAlign=middle;resizable=0;points=[];autosize=1;strokeColor=none;fillColor=none;" parent="1" vertex="1">
          <mxGeometry x="1490" y="205" width="60" height="30" as="geometry" />
        </mxCell>
        <mxCell id="XLAAWndn-XQMQ2BF4GBF-96" value="" style="endArrow=classic;html=1;rounded=0;entryX=-0.019;entryY=0.151;entryDx=0;entryDy=0;entryPerimeter=0;" parent="1" target="XLAAWndn-XQMQ2BF4GBF-94" edge="1">
          <mxGeometry width="50" height="50" relative="1" as="geometry">
            <mxPoint x="1305" y="185" as="sourcePoint" />
            <mxPoint x="1355" y="135" as="targetPoint" />
          </mxGeometry>
        </mxCell>
        <mxCell id="XLAAWndn-XQMQ2BF4GBF-97" value="Shift&lt;br&gt;Left 1" style="ellipse;whiteSpace=wrap;html=1;fontColor=light-dark(#000000,#EDEDED);labelBackgroundColor=none;" parent="1" vertex="1">
          <mxGeometry x="1370" y="220" width="50" height="70" as="geometry" />
        </mxCell>
        <mxCell id="XLAAWndn-XQMQ2BF4GBF-99" value="" style="endArrow=classic;html=1;rounded=0;entryX=-0.015;entryY=0.902;entryDx=0;entryDy=0;entryPerimeter=0;" parent="1" target="XLAAWndn-XQMQ2BF4GBF-94" edge="1">
          <mxGeometry width="50" height="50" relative="1" as="geometry">
            <mxPoint x="1420" y="260" as="sourcePoint" />
            <mxPoint x="1470" y="210" as="targetPoint" />
          </mxGeometry>
        </mxCell>
        <mxCell id="XLAAWndn-XQMQ2BF4GBF-104" value="" style="endArrow=none;html=1;rounded=0;exitX=0.839;exitY=-0.002;exitDx=0;exitDy=0;exitPerimeter=0;" parent="1" source="XLAAWndn-XQMQ2BF4GBF-59" edge="1">
          <mxGeometry width="50" height="50" relative="1" as="geometry">
            <mxPoint x="1310" y="520" as="sourcePoint" />
            <mxPoint x="1350" y="520" as="targetPoint" />
          </mxGeometry>
        </mxCell>
        <mxCell id="XLAAWndn-XQMQ2BF4GBF-105" value="" style="endArrow=none;html=1;rounded=0;" parent="1" edge="1">
          <mxGeometry width="50" height="50" relative="1" as="geometry">
            <mxPoint x="1350" y="520" as="sourcePoint" />
            <mxPoint x="1350" y="260" as="targetPoint" />
          </mxGeometry>
        </mxCell>
        <mxCell id="XLAAWndn-XQMQ2BF4GBF-106" value="" style="endArrow=classic;html=1;rounded=0;entryX=0;entryY=0.571;entryDx=0;entryDy=0;entryPerimeter=0;" parent="1" target="XLAAWndn-XQMQ2BF4GBF-97" edge="1">
          <mxGeometry width="50" height="50" relative="1" as="geometry">
            <mxPoint x="1350" y="260" as="sourcePoint" />
            <mxPoint x="1400" y="210" as="targetPoint" />
          </mxGeometry>
        </mxCell>
        <mxCell id="XLAAWndn-XQMQ2BF4GBF-107" value="MUX" style="rounded=1;whiteSpace=wrap;html=1;arcSize=50;rotation=90;direction=east;fontColor=light-dark(#000000,#EDEDED);labelBackgroundColor=none;" parent="1" vertex="1">
          <mxGeometry x="1380" y="330" width="70" height="20" as="geometry" />
        </mxCell>
        <mxCell id="XLAAWndn-XQMQ2BF4GBF-108" value="MUX" style="rounded=1;whiteSpace=wrap;html=1;arcSize=50;rotation=90;direction=east;fontColor=light-dark(#000000,#EDEDED);labelBackgroundColor=none;" parent="1" vertex="1">
          <mxGeometry x="1440" y="350" width="70" height="20" as="geometry" />
        </mxCell>
        <mxCell id="XLAAWndn-XQMQ2BF4GBF-109" value="" style="endArrow=none;html=1;rounded=0;" parent="1" edge="1">
          <mxGeometry width="50" height="50" relative="1" as="geometry">
            <mxPoint x="1305" y="250" as="sourcePoint" />
            <mxPoint x="1330" y="250" as="targetPoint" />
          </mxGeometry>
        </mxCell>
        <mxCell id="XLAAWndn-XQMQ2BF4GBF-110" value="" style="endArrow=none;html=1;rounded=0;" parent="1" edge="1">
          <mxGeometry width="50" height="50" relative="1" as="geometry">
            <mxPoint x="1330" y="320" as="sourcePoint" />
            <mxPoint x="1330" y="250" as="targetPoint" />
          </mxGeometry>
        </mxCell>
        <mxCell id="XLAAWndn-XQMQ2BF4GBF-111" value="" style="endArrow=classic;html=1;rounded=0;" parent="1" edge="1">
          <mxGeometry width="50" height="50" relative="1" as="geometry">
            <mxPoint x="1330" y="320" as="sourcePoint" />
            <mxPoint x="1400" y="320" as="targetPoint" />
          </mxGeometry>
        </mxCell>
        <mxCell id="XLAAWndn-XQMQ2BF4GBF-112" value="" style="endArrow=classic;html=1;rounded=0;exitX=0.5;exitY=0;exitDx=0;exitDy=0;entryX=0.211;entryY=1.02;entryDx=0;entryDy=0;entryPerimeter=0;" parent="1" source="XLAAWndn-XQMQ2BF4GBF-107" target="XLAAWndn-XQMQ2BF4GBF-108" edge="1">
          <mxGeometry width="50" height="50" relative="1" as="geometry">
            <mxPoint x="1430" y="340" as="sourcePoint" />
            <mxPoint x="1450" y="340" as="targetPoint" />
          </mxGeometry>
        </mxCell>
        <mxCell id="XLAAWndn-XQMQ2BF4GBF-113" value="" style="endArrow=none;html=1;rounded=0;" parent="1" edge="1">
          <mxGeometry width="50" height="50" relative="1" as="geometry">
            <mxPoint x="1340" y="380" as="sourcePoint" />
            <mxPoint x="1340" y="185" as="targetPoint" />
          </mxGeometry>
        </mxCell>
        <mxCell id="XLAAWndn-XQMQ2BF4GBF-114" value="" style="endArrow=classic;html=1;rounded=0;entryX=0.783;entryY=1.011;entryDx=0;entryDy=0;entryPerimeter=0;" parent="1" target="XLAAWndn-XQMQ2BF4GBF-108" edge="1">
          <mxGeometry width="50" height="50" relative="1" as="geometry">
            <mxPoint x="1340" y="380" as="sourcePoint" />
            <mxPoint x="1460" y="380" as="targetPoint" />
          </mxGeometry>
        </mxCell>
        <mxCell id="XLAAWndn-XQMQ2BF4GBF-115" value="MUX" style="rounded=1;whiteSpace=wrap;html=1;arcSize=50;rotation=90;direction=east;fontColor=light-dark(#000000,#EDEDED);labelBackgroundColor=none;" parent="1" vertex="1">
          <mxGeometry x="1380" y="450" width="70" height="20" as="geometry" />
        </mxCell>
        <mxCell id="XLAAWndn-XQMQ2BF4GBF-116" value="MUX" style="rounded=1;whiteSpace=wrap;html=1;arcSize=50;rotation=90;direction=east;fontColor=light-dark(#000000,#EDEDED);labelBackgroundColor=none;" parent="1" vertex="1">
          <mxGeometry x="1440" y="470" width="70" height="20" as="geometry" />
        </mxCell>
        <mxCell id="XLAAWndn-XQMQ2BF4GBF-117" value="" style="endArrow=none;html=1;rounded=0;" parent="1" edge="1">
          <mxGeometry width="50" height="50" relative="1" as="geometry">
            <mxPoint x="1305" y="320" as="sourcePoint" />
            <mxPoint x="1320" y="320" as="targetPoint" />
          </mxGeometry>
        </mxCell>
        <mxCell id="XLAAWndn-XQMQ2BF4GBF-119" value="" style="endArrow=none;html=1;rounded=0;" parent="1" edge="1">
          <mxGeometry width="50" height="50" relative="1" as="geometry">
            <mxPoint x="1320" y="320" as="sourcePoint" />
            <mxPoint x="1320" y="440" as="targetPoint" />
          </mxGeometry>
        </mxCell>
        <mxCell id="XLAAWndn-XQMQ2BF4GBF-120" value="" style="endArrow=classic;html=1;rounded=0;" parent="1" edge="1">
          <mxGeometry width="50" height="50" relative="1" as="geometry">
            <mxPoint x="1320" y="440" as="sourcePoint" />
            <mxPoint x="1400" y="440" as="targetPoint" />
          </mxGeometry>
        </mxCell>
        <mxCell id="XLAAWndn-XQMQ2BF4GBF-121" value="" style="endArrow=classic;html=1;rounded=0;exitX=0.5;exitY=0;exitDx=0;exitDy=0;entryX=0.212;entryY=1.009;entryDx=0;entryDy=0;entryPerimeter=0;" parent="1" source="XLAAWndn-XQMQ2BF4GBF-115" target="XLAAWndn-XQMQ2BF4GBF-116" edge="1">
          <mxGeometry width="50" height="50" relative="1" as="geometry">
            <mxPoint x="1430" y="460" as="sourcePoint" />
            <mxPoint x="1460" y="460" as="targetPoint" />
          </mxGeometry>
        </mxCell>
        <mxCell id="XLAAWndn-XQMQ2BF4GBF-122" value="&lt;font style=&quot;font-size: 8px;&quot;&gt;Shift&lt;br&gt;Left 12&lt;/font&gt;" style="ellipse;whiteSpace=wrap;html=1;fontColor=light-dark(#000000,#EDEDED);labelBackgroundColor=none;" parent="1" vertex="1">
          <mxGeometry x="1370" y="495" width="30" height="40" as="geometry" />
        </mxCell>
        <mxCell id="XLAAWndn-XQMQ2BF4GBF-123" value="" style="endArrow=classic;html=1;rounded=0;entryX=0;entryY=0.625;entryDx=0;entryDy=0;entryPerimeter=0;" parent="1" target="XLAAWndn-XQMQ2BF4GBF-122" edge="1">
          <mxGeometry width="50" height="50" relative="1" as="geometry">
            <mxPoint x="1350" y="520" as="sourcePoint" />
            <mxPoint x="1400" y="470" as="targetPoint" />
          </mxGeometry>
        </mxCell>
        <mxCell id="XLAAWndn-XQMQ2BF4GBF-125" value="" style="endArrow=none;html=1;rounded=0;" parent="1" edge="1">
          <mxGeometry width="50" height="50" relative="1" as="geometry">
            <mxPoint x="1400" y="520" as="sourcePoint" />
            <mxPoint x="1440" y="520" as="targetPoint" />
          </mxGeometry>
        </mxCell>
        <mxCell id="XLAAWndn-XQMQ2BF4GBF-127" value="" style="endArrow=none;html=1;rounded=0;" parent="1" edge="1">
          <mxGeometry width="50" height="50" relative="1" as="geometry">
            <mxPoint x="1440" y="520" as="sourcePoint" />
            <mxPoint x="1440" y="480" as="targetPoint" />
          </mxGeometry>
        </mxCell>
        <mxCell id="XLAAWndn-XQMQ2BF4GBF-128" value="" style="endArrow=classic;html=1;rounded=0;entryX=0.5;entryY=1;entryDx=0;entryDy=0;" parent="1" target="XLAAWndn-XQMQ2BF4GBF-116" edge="1">
          <mxGeometry width="50" height="50" relative="1" as="geometry">
            <mxPoint x="1440" y="480" as="sourcePoint" />
            <mxPoint x="1490" y="435" as="targetPoint" />
          </mxGeometry>
        </mxCell>
        <mxCell id="XLAAWndn-XQMQ2BF4GBF-129" value="" style="endArrow=none;html=1;rounded=0;" parent="1" edge="1">
          <mxGeometry width="50" height="50" relative="1" as="geometry">
            <mxPoint x="1340" y="550" as="sourcePoint" />
            <mxPoint x="1340" y="520" as="targetPoint" />
          </mxGeometry>
        </mxCell>
        <mxCell id="XLAAWndn-XQMQ2BF4GBF-130" value="" style="endArrow=none;html=1;rounded=0;" parent="1" edge="1">
          <mxGeometry width="50" height="50" relative="1" as="geometry">
            <mxPoint x="1340" y="550" as="sourcePoint" />
            <mxPoint x="1450" y="550" as="targetPoint" />
          </mxGeometry>
        </mxCell>
        <mxCell id="XLAAWndn-XQMQ2BF4GBF-131" value="" style="endArrow=none;html=1;rounded=0;" parent="1" edge="1">
          <mxGeometry width="50" height="50" relative="1" as="geometry">
            <mxPoint x="1450" y="550" as="sourcePoint" />
            <mxPoint x="1450" y="500" as="targetPoint" />
          </mxGeometry>
        </mxCell>
        <mxCell id="XLAAWndn-XQMQ2BF4GBF-132" value="" style="endArrow=classic;html=1;rounded=0;entryX=0.786;entryY=1.054;entryDx=0;entryDy=0;entryPerimeter=0;" parent="1" target="XLAAWndn-XQMQ2BF4GBF-116" edge="1">
          <mxGeometry width="50" height="50" relative="1" as="geometry">
            <mxPoint x="1450" y="500" as="sourcePoint" />
            <mxPoint x="1500" y="450" as="targetPoint" />
          </mxGeometry>
        </mxCell>
        <mxCell id="XLAAWndn-XQMQ2BF4GBF-133" value="" style="shape=stencil(tZXRjoIwEEW/pq+bQsPq6wb1PyqOS2NtSdvV3b93oGCs0I0IJISkc7mHIb1DCcttySsgKS0J25A0TSjFO66vT2tuKyicL164EXwvwSvWGX2Cqzi4liFUCUa4WmVbQr/wmfpieaGVQojQygbKg44wLhR66a+Hta//C1YV8s/gwLRNNtXd68yPbAFqskSnIbPre95OZ6KGvSaL7NQ81ORNJsuxEgsxy/e8OH0b/aMOfVdUO2oDA8JdFlL6AYt9YMXruesJnXzWF/h/moawnVsK9eC+/wxaP5sKWI0FPGWMTvOvx9qz0P+ZTfOzsf7Q/sL+FVLbaHKwHgkPHguDmWs8vcQ2VX+ONIUb);whiteSpace=wrap;html=1;fontColor=light-dark(#000000,#EDEDED);labelBackgroundColor=none;" parent="1" vertex="1">
          <mxGeometry x="1520" y="348" width="70" height="140" as="geometry" />
        </mxCell>
        <mxCell id="XLAAWndn-XQMQ2BF4GBF-134" value="" style="endArrow=classic;html=1;rounded=0;entryX=0;entryY=0.086;entryDx=0;entryDy=0;entryPerimeter=0;exitX=0.5;exitY=0;exitDx=0;exitDy=0;" parent="1" source="XLAAWndn-XQMQ2BF4GBF-108" target="XLAAWndn-XQMQ2BF4GBF-133" edge="1">
          <mxGeometry width="50" height="50" relative="1" as="geometry">
            <mxPoint x="1490" y="360" as="sourcePoint" />
            <mxPoint x="1540" y="310" as="targetPoint" />
          </mxGeometry>
        </mxCell>
        <mxCell id="XLAAWndn-XQMQ2BF4GBF-135" value="" style="endArrow=classic;html=1;rounded=0;exitX=0.5;exitY=0;exitDx=0;exitDy=0;entryX=0;entryY=0.943;entryDx=0;entryDy=0;entryPerimeter=0;" parent="1" source="XLAAWndn-XQMQ2BF4GBF-116" target="XLAAWndn-XQMQ2BF4GBF-133" edge="1">
          <mxGeometry width="50" height="50" relative="1" as="geometry">
            <mxPoint x="1490" y="478" as="sourcePoint" />
            <mxPoint x="1540" y="428" as="targetPoint" />
          </mxGeometry>
        </mxCell>
        <mxCell id="XLAAWndn-XQMQ2BF4GBF-137" value="ALU" style="text;html=1;align=center;verticalAlign=middle;resizable=0;points=[];autosize=1;strokeColor=none;fillColor=none;" parent="1" vertex="1">
          <mxGeometry x="1550" y="405" width="50" height="30" as="geometry" />
        </mxCell>
        <mxCell id="XLAAWndn-XQMQ2BF4GBF-138" value="" style="endArrow=none;html=1;rounded=0;fillColor=#1ba1e2;strokeColor=#006EAF;" parent="1" edge="1">
          <mxGeometry width="50" height="50" relative="1" as="geometry">
            <mxPoint x="1305" y="70" as="sourcePoint" />
            <mxPoint x="1430" y="70" as="targetPoint" />
          </mxGeometry>
        </mxCell>
        <mxCell id="XLAAWndn-XQMQ2BF4GBF-139" value="" style="endArrow=none;html=1;rounded=0;fillColor=#1ba1e2;strokeColor=#006EAF;" parent="1" edge="1">
          <mxGeometry width="50" height="50" relative="1" as="geometry">
            <mxPoint x="1430" y="70" as="sourcePoint" />
            <mxPoint x="1430" y="290" as="targetPoint" />
          </mxGeometry>
        </mxCell>
        <mxCell id="XLAAWndn-XQMQ2BF4GBF-141" value="" style="endArrow=none;html=1;rounded=0;fillColor=#1ba1e2;strokeColor=#006EAF;" parent="1" edge="1">
          <mxGeometry width="50" height="50" relative="1" as="geometry">
            <mxPoint x="1430" y="290" as="sourcePoint" />
            <mxPoint x="1470" y="290" as="targetPoint" />
          </mxGeometry>
        </mxCell>
        <mxCell id="XLAAWndn-XQMQ2BF4GBF-143" value="" style="endArrow=none;html=1;rounded=0;" parent="1" edge="1">
          <mxGeometry width="50" height="50" relative="1" as="geometry">
            <mxPoint x="960" y="580" as="sourcePoint" />
            <mxPoint x="960" y="520" as="targetPoint" />
          </mxGeometry>
        </mxCell>
        <mxCell id="XLAAWndn-XQMQ2BF4GBF-144" value="" style="endArrow=classic;html=1;rounded=0;entryX=0.951;entryY=1.004;entryDx=0;entryDy=0;entryPerimeter=0;" parent="1" target="XLAAWndn-XQMQ2BF4GBF-59" edge="1">
          <mxGeometry width="50" height="50" relative="1" as="geometry">
            <mxPoint x="960" y="580" as="sourcePoint" />
            <mxPoint x="1110" y="580" as="targetPoint" />
          </mxGeometry>
        </mxCell>
        <mxCell id="XLAAWndn-XQMQ2BF4GBF-145" value="Inst[25,30,14:12]" style="text;html=1;align=center;verticalAlign=middle;resizable=0;points=[];autosize=1;strokeColor=none;fillColor=none;fontColor=light-dark(#000000,#EDEDED);labelBackgroundColor=none;" parent="1" vertex="1">
          <mxGeometry x="1140" y="550" width="110" height="30" as="geometry" />
        </mxCell>
        <mxCell id="XLAAWndn-XQMQ2BF4GBF-148" value="" style="endArrow=classic;html=1;rounded=0;fillColor=#1ba1e2;strokeColor=#006EAF;exitX=0.889;exitY=0.828;exitDx=0;exitDy=0;exitPerimeter=0;entryX=0;entryY=0.75;entryDx=0;entryDy=0;" parent="1" target="XLAAWndn-XQMQ2BF4GBF-108" edge="1">
          <mxGeometry width="50" height="50" relative="1" as="geometry">
            <mxPoint x="1470" y="290" as="sourcePoint" />
            <mxPoint x="1652" y="290.52" as="targetPoint" />
          </mxGeometry>
        </mxCell>
        <mxCell id="XLAAWndn-XQMQ2BF4GBF-149" value="ALUSrc1" style="text;html=1;align=center;verticalAlign=middle;resizable=0;points=[];autosize=1;fontSize=5;rounded=0;glass=0;labelBackgroundColor=none;fontColor=light-dark(#000000,#EDEDED);" parent="1" vertex="1">
          <mxGeometry x="1390" y="80" width="40" height="20" as="geometry" />
        </mxCell>
        <mxCell id="XLAAWndn-XQMQ2BF4GBF-150" value="" style="endArrow=none;html=1;rounded=0;fillColor=#1ba1e2;strokeColor=#006EAF;" parent="1" edge="1">
          <mxGeometry width="50" height="50" relative="1" as="geometry">
            <mxPoint x="1305" y="60" as="sourcePoint" />
            <mxPoint x="1440" y="60" as="targetPoint" />
          </mxGeometry>
        </mxCell>
        <mxCell id="XLAAWndn-XQMQ2BF4GBF-152" value="" style="endArrow=none;html=1;rounded=0;fillColor=#1ba1e2;strokeColor=#006EAF;" parent="1" edge="1">
          <mxGeometry width="50" height="50" relative="1" as="geometry">
            <mxPoint x="1440" y="60" as="sourcePoint" />
            <mxPoint x="1440" y="410" as="targetPoint" />
          </mxGeometry>
        </mxCell>
        <mxCell id="XLAAWndn-XQMQ2BF4GBF-153" value="" style="endArrow=none;html=1;rounded=0;fillColor=#1ba1e2;strokeColor=#006EAF;" parent="1" edge="1">
          <mxGeometry width="50" height="50" relative="1" as="geometry">
            <mxPoint x="1440" y="410" as="sourcePoint" />
            <mxPoint x="1470" y="410" as="targetPoint" />
          </mxGeometry>
        </mxCell>
        <mxCell id="XLAAWndn-XQMQ2BF4GBF-154" value="" style="endArrow=classic;html=1;rounded=0;fillColor=#1ba1e2;strokeColor=#006EAF;entryX=0;entryY=0.75;entryDx=0;entryDy=0;" parent="1" target="XLAAWndn-XQMQ2BF4GBF-116" edge="1">
          <mxGeometry width="50" height="50" relative="1" as="geometry">
            <mxPoint x="1470" y="410" as="sourcePoint" />
            <mxPoint x="1470" y="440" as="targetPoint" />
          </mxGeometry>
        </mxCell>
        <mxCell id="XLAAWndn-XQMQ2BF4GBF-155" value="ALUSrc2" style="text;html=1;align=center;verticalAlign=middle;resizable=0;points=[];autosize=1;fontSize=5;rounded=0;glass=0;labelBackgroundColor=none;fontColor=light-dark(#000000,#EDEDED);" parent="1" vertex="1">
          <mxGeometry x="1440" y="80" width="40" height="20" as="geometry" />
        </mxCell>
        <mxCell id="XLAAWndn-XQMQ2BF4GBF-156" value="" style="rounded=0;whiteSpace=wrap;html=1;rotation=90;" parent="1" vertex="1">
          <mxGeometry x="1440" y="310" width="530" height="60" as="geometry" />
        </mxCell>
        <mxCell id="XLAAWndn-XQMQ2BF4GBF-157" value="Z" style="text;html=1;align=center;verticalAlign=middle;resizable=0;points=[];autosize=1;strokeColor=none;fillColor=none;fontColor=light-dark(#000000,#14FAFF);" parent="1" vertex="1">
          <mxGeometry x="1560" y="380" width="30" height="30" as="geometry" />
        </mxCell>
        <mxCell id="XLAAWndn-XQMQ2BF4GBF-158" value="C" style="text;html=1;align=center;verticalAlign=middle;resizable=0;points=[];autosize=1;strokeColor=none;fillColor=none;fontColor=light-dark(#000000,#14FAFF);" parent="1" vertex="1">
          <mxGeometry x="1550" y="370" width="30" height="30" as="geometry" />
        </mxCell>
        <mxCell id="XLAAWndn-XQMQ2BF4GBF-160" value="V" style="text;html=1;align=center;verticalAlign=middle;resizable=0;points=[];autosize=1;strokeColor=none;fillColor=none;fontColor=light-dark(#000000,#14FAFF);" parent="1" vertex="1">
          <mxGeometry x="1540" y="360" width="30" height="30" as="geometry" />
        </mxCell>
        <mxCell id="XLAAWndn-XQMQ2BF4GBF-161" value="S" style="text;html=1;align=center;verticalAlign=middle;resizable=0;points=[];autosize=1;strokeColor=none;fillColor=none;fontColor=light-dark(#000000,#14FAFF);" parent="1" vertex="1">
          <mxGeometry x="1530" y="358" width="30" height="30" as="geometry" />
        </mxCell>
        <mxCell id="XLAAWndn-XQMQ2BF4GBF-162" value="&lt;font style=&quot;&quot;&gt;ALU&lt;br&gt;control&lt;/font&gt;" style="ellipse;whiteSpace=wrap;html=1;fillColor=none;fontColor=light-dark(#000000,#EDEDED);strokeColor=#006EAF;textShadow=1;labelBackgroundColor=none;" parent="1" vertex="1">
          <mxGeometry x="1490" y="540" width="70" height="110" as="geometry" />
        </mxCell>
        <mxCell id="XLAAWndn-XQMQ2BF4GBF-163" value="" style="endArrow=none;html=1;rounded=0;fillColor=#1ba1e2;strokeColor=#006EAF;" parent="1" edge="1">
          <mxGeometry width="50" height="50" relative="1" as="geometry">
            <mxPoint x="1305" y="49.78" as="sourcePoint" />
            <mxPoint x="1330" y="50" as="targetPoint" />
          </mxGeometry>
        </mxCell>
        <mxCell id="XLAAWndn-XQMQ2BF4GBF-165" value="" style="endArrow=none;html=1;rounded=0;fillColor=#1ba1e2;strokeColor=#006EAF;" parent="1" edge="1">
          <mxGeometry width="50" height="50" relative="1" as="geometry">
            <mxPoint x="1330" y="50" as="sourcePoint" />
            <mxPoint x="1330" y="240" as="targetPoint" />
          </mxGeometry>
        </mxCell>
        <mxCell id="XLAAWndn-XQMQ2BF4GBF-166" value="" style="endArrow=none;html=1;rounded=0;fillColor=#1ba1e2;strokeColor=#006EAF;" parent="1" edge="1">
          <mxGeometry width="50" height="50" relative="1" as="geometry">
            <mxPoint x="1320" y="240" as="sourcePoint" />
            <mxPoint x="1330" y="240.22" as="targetPoint" />
          </mxGeometry>
        </mxCell>
        <mxCell id="XLAAWndn-XQMQ2BF4GBF-167" value="" style="endArrow=none;html=1;rounded=0;fillColor=#1ba1e2;strokeColor=#006EAF;" parent="1" edge="1">
          <mxGeometry width="50" height="50" relative="1" as="geometry">
            <mxPoint x="1320" y="240" as="sourcePoint" />
            <mxPoint x="1320" y="310" as="targetPoint" />
          </mxGeometry>
        </mxCell>
        <mxCell id="XLAAWndn-XQMQ2BF4GBF-168" value="" style="endArrow=none;html=1;rounded=0;fillColor=#1ba1e2;strokeColor=#006EAF;" parent="1" edge="1">
          <mxGeometry width="50" height="50" relative="1" as="geometry">
            <mxPoint x="1320" y="310" as="sourcePoint" />
            <mxPoint x="1360" y="310" as="targetPoint" />
          </mxGeometry>
        </mxCell>
        <mxCell id="XLAAWndn-XQMQ2BF4GBF-169" value="" style="endArrow=none;html=1;rounded=0;fillColor=#1ba1e2;strokeColor=#006EAF;" parent="1" edge="1">
          <mxGeometry width="50" height="50" relative="1" as="geometry">
            <mxPoint x="1360" y="310" as="sourcePoint" />
            <mxPoint x="1360" y="590" as="targetPoint" />
          </mxGeometry>
        </mxCell>
        <mxCell id="XLAAWndn-XQMQ2BF4GBF-170" value="" style="endArrow=classic;html=1;rounded=0;fillColor=#1ba1e2;strokeColor=#006EAF;entryX=0;entryY=0.455;entryDx=0;entryDy=0;entryPerimeter=0;" parent="1" target="XLAAWndn-XQMQ2BF4GBF-162" edge="1">
          <mxGeometry width="50" height="50" relative="1" as="geometry">
            <mxPoint x="1360" y="590" as="sourcePoint" />
            <mxPoint x="1360" y="625" as="targetPoint" />
          </mxGeometry>
        </mxCell>
        <mxCell id="XLAAWndn-XQMQ2BF4GBF-171" value="" style="endArrow=classic;html=1;rounded=0;entryX=0;entryY=0.364;entryDx=0;entryDy=0;entryPerimeter=0;" parent="1" target="XLAAWndn-XQMQ2BF4GBF-162" edge="1">
          <mxGeometry width="50" height="50" relative="1" as="geometry">
            <mxPoint x="1305" y="580" as="sourcePoint" />
            <mxPoint x="1475" y="580" as="targetPoint" />
          </mxGeometry>
        </mxCell>
        <mxCell id="XLAAWndn-XQMQ2BF4GBF-172" value="" style="endArrow=none;html=1;rounded=0;fillColor=#1ba1e2;strokeColor=#006EAF;exitX=1;exitY=0.545;exitDx=0;exitDy=0;exitPerimeter=0;" parent="1" source="XLAAWndn-XQMQ2BF4GBF-162" edge="1">
          <mxGeometry width="50" height="50" relative="1" as="geometry">
            <mxPoint x="1570" y="600" as="sourcePoint" />
            <mxPoint x="1570" y="600" as="targetPoint" />
          </mxGeometry>
        </mxCell>
        <mxCell id="XLAAWndn-XQMQ2BF4GBF-173" value="" style="endArrow=classic;html=1;rounded=0;fillColor=#1ba1e2;strokeColor=#006EAF;" parent="1" edge="1">
          <mxGeometry width="50" height="50" relative="1" as="geometry">
            <mxPoint x="1570" y="600" as="sourcePoint" />
            <mxPoint x="1570" y="461.56" as="targetPoint" />
          </mxGeometry>
        </mxCell>
        <mxCell id="XLAAWndn-XQMQ2BF4GBF-174" value="" style="endArrow=classic;html=1;rounded=0;entryX=0.651;entryY=1.002;entryDx=0;entryDy=0;entryPerimeter=0;" parent="1" target="XLAAWndn-XQMQ2BF4GBF-156" edge="1">
          <mxGeometry width="50" height="50" relative="1" as="geometry">
            <mxPoint x="1590" y="420" as="sourcePoint" />
            <mxPoint x="1670" y="420" as="targetPoint" />
          </mxGeometry>
        </mxCell>
        <mxCell id="XLAAWndn-XQMQ2BF4GBF-175" value="ALU_Result" style="text;html=1;align=center;verticalAlign=middle;resizable=0;points=[];autosize=1;strokeColor=none;fillColor=none;" parent="1" vertex="1">
          <mxGeometry x="1580" y="390" width="90" height="30" as="geometry" />
        </mxCell>
        <mxCell id="XLAAWndn-XQMQ2BF4GBF-176" value="" style="endArrow=classic;html=1;rounded=0;exitX=0.5;exitY=0;exitDx=0;exitDy=0;" parent="1" edge="1">
          <mxGeometry width="50" height="50" relative="1" as="geometry">
            <mxPoint x="1440" y="520" as="sourcePoint" />
            <mxPoint x="1670" y="520" as="targetPoint" />
          </mxGeometry>
        </mxCell>
        <mxCell id="XLAAWndn-XQMQ2BF4GBF-177" value="Imm_shift_12" style="text;html=1;align=center;verticalAlign=middle;resizable=0;points=[];autosize=1;strokeColor=none;fillColor=none;" parent="1" vertex="1">
          <mxGeometry x="1570" y="495" width="100" height="30" as="geometry" />
        </mxCell>
        <mxCell id="XLAAWndn-XQMQ2BF4GBF-178" value="" style="endArrow=none;html=1;rounded=0;" parent="1" edge="1">
          <mxGeometry width="50" height="50" relative="1" as="geometry">
            <mxPoint x="1435" y="540" as="sourcePoint" />
            <mxPoint x="1435" y="460" as="targetPoint" />
          </mxGeometry>
        </mxCell>
        <mxCell id="XLAAWndn-XQMQ2BF4GBF-179" value="" style="endArrow=classic;html=1;rounded=0;" parent="1" edge="1">
          <mxGeometry width="50" height="50" relative="1" as="geometry">
            <mxPoint x="1435" y="540" as="sourcePoint" />
            <mxPoint x="1670" y="540" as="targetPoint" />
          </mxGeometry>
        </mxCell>
        <mxCell id="XLAAWndn-XQMQ2BF4GBF-181" value="Rs2_data" style="text;html=1;align=center;verticalAlign=middle;resizable=0;points=[];autosize=1;strokeColor=none;fillColor=none;" parent="1" vertex="1">
          <mxGeometry x="1590" y="535" width="70" height="30" as="geometry" />
        </mxCell>
        <mxCell id="XLAAWndn-XQMQ2BF4GBF-182" value="" style="endArrow=classic;html=1;rounded=0;entryX=0.279;entryY=0.997;entryDx=0;entryDy=0;entryPerimeter=0;" parent="1" target="XLAAWndn-XQMQ2BF4GBF-156" edge="1">
          <mxGeometry width="50" height="50" relative="1" as="geometry">
            <mxPoint x="1550" y="222.79" as="sourcePoint" />
            <mxPoint x="1670" y="222.79" as="targetPoint" />
          </mxGeometry>
        </mxCell>
        <mxCell id="XLAAWndn-XQMQ2BF4GBF-183" value="PC_Add" style="text;html=1;align=center;verticalAlign=middle;resizable=0;points=[];autosize=1;strokeColor=none;fillColor=none;" parent="1" vertex="1">
          <mxGeometry x="1600" y="190" width="70" height="30" as="geometry" />
        </mxCell>
        <mxCell id="XLAAWndn-XQMQ2BF4GBF-184" value="" style="endArrow=classic;html=1;rounded=0;entryX=0.155;entryY=0.999;entryDx=0;entryDy=0;entryPerimeter=0;" parent="1" target="XLAAWndn-XQMQ2BF4GBF-156" edge="1">
          <mxGeometry width="50" height="50" relative="1" as="geometry">
            <mxPoint x="1305" y="157.17" as="sourcePoint" />
            <mxPoint x="1670" y="157" as="targetPoint" />
          </mxGeometry>
        </mxCell>
        <mxCell id="XLAAWndn-XQMQ2BF4GBF-185" value="PC_Next" style="text;html=1;align=center;verticalAlign=middle;resizable=0;points=[];autosize=1;strokeColor=none;fillColor=none;" parent="1" vertex="1">
          <mxGeometry x="1610" y="128" width="70" height="30" as="geometry" />
        </mxCell>
        <mxCell id="XLAAWndn-XQMQ2BF4GBF-186" value="M" style="rounded=0;whiteSpace=wrap;rotation=0;fillColor=none;fontColor=light-dark(#000000,#FFFFFF);strokeColor=#006EAF;labelBorderColor=none;labelBackgroundColor=none;" parent="1" vertex="1">
          <mxGeometry x="1675" y="20" width="60" height="60" as="geometry" />
        </mxCell>
        <mxCell id="XLAAWndn-XQMQ2BF4GBF-187" value="WB" style="rounded=0;whiteSpace=wrap;rotation=0;fillColor=none;fontColor=light-dark(#000000,#FFFFFF);strokeColor=#006EAF;labelBorderColor=none;labelBackgroundColor=none;" parent="1" vertex="1">
          <mxGeometry x="1675" y="-40" width="60" height="60" as="geometry" />
        </mxCell>
        <mxCell id="XLAAWndn-XQMQ2BF4GBF-188" value="EX/MEM" style="text;html=1;align=center;verticalAlign=middle;resizable=0;points=[];autosize=1;strokeColor=none;fillColor=none;" parent="1" vertex="1">
          <mxGeometry x="1670" y="-70" width="70" height="30" as="geometry" />
        </mxCell>
        <mxCell id="XLAAWndn-XQMQ2BF4GBF-190" value="" style="endArrow=none;html=1;rounded=0;fillColor=#1ba1e2;strokeColor=#006EAF;" parent="1" edge="1">
          <mxGeometry width="50" height="50" relative="1" as="geometry">
            <mxPoint x="1305" y="-1" as="sourcePoint" />
            <mxPoint x="1560" y="-1" as="targetPoint" />
          </mxGeometry>
        </mxCell>
        <mxCell id="XLAAWndn-XQMQ2BF4GBF-191" value="" style="endArrow=none;html=1;rounded=0;fillColor=#1ba1e2;strokeColor=#006EAF;" parent="1" edge="1">
          <mxGeometry width="50" height="50" relative="1" as="geometry">
            <mxPoint x="1560" as="sourcePoint" />
            <mxPoint x="1560" y="60" as="targetPoint" />
          </mxGeometry>
        </mxCell>
        <mxCell id="XLAAWndn-XQMQ2BF4GBF-192" value="" style="endArrow=classic;html=1;rounded=0;fillColor=#1ba1e2;strokeColor=#006EAF;exitX=0.889;exitY=0.828;exitDx=0;exitDy=0;exitPerimeter=0;entryX=-0.012;entryY=0.679;entryDx=0;entryDy=0;entryPerimeter=0;" parent="1" target="XLAAWndn-XQMQ2BF4GBF-186" edge="1">
          <mxGeometry width="50" height="50" relative="1" as="geometry">
            <mxPoint x="1560" y="60" as="sourcePoint" />
            <mxPoint x="1670" y="61" as="targetPoint" />
          </mxGeometry>
        </mxCell>
        <mxCell id="XLAAWndn-XQMQ2BF4GBF-193" value="" style="endArrow=none;html=1;rounded=0;fillColor=#1ba1e2;strokeColor=#006EAF;" parent="1" edge="1">
          <mxGeometry width="50" height="50" relative="1" as="geometry">
            <mxPoint x="1305" y="-60" as="sourcePoint" />
            <mxPoint x="1560" y="-60" as="targetPoint" />
          </mxGeometry>
        </mxCell>
        <mxCell id="XLAAWndn-XQMQ2BF4GBF-194" value="" style="endArrow=none;html=1;rounded=0;fillColor=#1ba1e2;strokeColor=#006EAF;" parent="1" edge="1">
          <mxGeometry width="50" height="50" relative="1" as="geometry">
            <mxPoint x="1560" y="-60" as="sourcePoint" />
            <mxPoint x="1560" y="-20" as="targetPoint" />
          </mxGeometry>
        </mxCell>
        <mxCell id="XLAAWndn-XQMQ2BF4GBF-195" value="" style="endArrow=classic;html=1;rounded=0;fillColor=#1ba1e2;strokeColor=#006EAF;exitX=0.889;exitY=0.828;exitDx=0;exitDy=0;exitPerimeter=0;entryX=-0.012;entryY=0.679;entryDx=0;entryDy=0;entryPerimeter=0;" parent="1" edge="1">
          <mxGeometry width="50" height="50" relative="1" as="geometry">
            <mxPoint x="1560" y="-20" as="sourcePoint" />
            <mxPoint x="1674" y="-19" as="targetPoint" />
          </mxGeometry>
        </mxCell>
        <mxCell id="XLAAWndn-XQMQ2BF4GBF-196" value="" style="endArrow=none;html=1;rounded=0;fillColor=#1ba1e2;strokeColor=#006EAF;entryX=0.976;entryY=0.442;entryDx=0;entryDy=0;entryPerimeter=0;" parent="1" target="XLAAWndn-XQMQ2BF4GBF-158" edge="1">
          <mxGeometry width="50" height="50" relative="1" as="geometry">
            <mxPoint x="1580" y="350" as="sourcePoint" />
            <mxPoint x="1580" y="388" as="targetPoint" />
          </mxGeometry>
        </mxCell>
        <mxCell id="XLAAWndn-XQMQ2BF4GBF-197" value="" style="endArrow=classic;html=1;rounded=0;fillColor=#1ba1e2;strokeColor=#006EAF;" parent="1" edge="1">
          <mxGeometry width="50" height="50" relative="1" as="geometry">
            <mxPoint x="1580" y="350" as="sourcePoint" />
            <mxPoint x="1670" y="350" as="targetPoint" />
          </mxGeometry>
        </mxCell>
        <mxCell id="XLAAWndn-XQMQ2BF4GBF-198" value="" style="endArrow=none;html=1;rounded=0;fillColor=#1ba1e2;strokeColor=#006EAF;entryX=0.976;entryY=0.594;entryDx=0;entryDy=0;entryPerimeter=0;" parent="1" target="XLAAWndn-XQMQ2BF4GBF-160" edge="1">
          <mxGeometry width="50" height="50" relative="1" as="geometry">
            <mxPoint x="1570" y="340" as="sourcePoint" />
            <mxPoint x="1569.71" y="376.5" as="targetPoint" />
          </mxGeometry>
        </mxCell>
        <mxCell id="XLAAWndn-XQMQ2BF4GBF-200" value="" style="endArrow=classic;html=1;rounded=0;fillColor=#1ba1e2;strokeColor=#006EAF;" parent="1" edge="1">
          <mxGeometry width="50" height="50" relative="1" as="geometry">
            <mxPoint x="1570" y="340" as="sourcePoint" />
            <mxPoint x="1670" y="340" as="targetPoint" />
          </mxGeometry>
        </mxCell>
        <mxCell id="XLAAWndn-XQMQ2BF4GBF-201" value="" style="endArrow=none;html=1;rounded=0;fillColor=#1ba1e2;strokeColor=#006EAF;entryX=0.976;entryY=0.594;entryDx=0;entryDy=0;entryPerimeter=0;" parent="1" edge="1">
          <mxGeometry width="50" height="50" relative="1" as="geometry">
            <mxPoint x="1560" y="330" as="sourcePoint" />
            <mxPoint x="1559" y="370" as="targetPoint" />
          </mxGeometry>
        </mxCell>
        <mxCell id="XLAAWndn-XQMQ2BF4GBF-202" value="" style="endArrow=classic;html=1;rounded=0;fillColor=#1ba1e2;strokeColor=#006EAF;" parent="1" edge="1">
          <mxGeometry width="50" height="50" relative="1" as="geometry">
            <mxPoint x="1560" y="330" as="sourcePoint" />
            <mxPoint x="1670" y="330" as="targetPoint" />
          </mxGeometry>
        </mxCell>
        <mxCell id="XLAAWndn-XQMQ2BF4GBF-203" value="" style="endArrow=none;html=1;rounded=0;fillColor=#1ba1e2;strokeColor=#006EAF;" parent="1" edge="1">
          <mxGeometry width="50" height="50" relative="1" as="geometry">
            <mxPoint x="1544.88" y="320" as="sourcePoint" />
            <mxPoint x="1545" y="360" as="targetPoint" />
          </mxGeometry>
        </mxCell>
        <mxCell id="XLAAWndn-XQMQ2BF4GBF-204" value="" style="endArrow=classic;html=1;rounded=0;fillColor=#1ba1e2;strokeColor=#006EAF;" parent="1" edge="1">
          <mxGeometry width="50" height="50" relative="1" as="geometry">
            <mxPoint x="1545" y="320" as="sourcePoint" />
            <mxPoint x="1670" y="320" as="targetPoint" />
          </mxGeometry>
        </mxCell>
        <mxCell id="XLAAWndn-XQMQ2BF4GBF-205" value="" style="endArrow=none;html=1;rounded=0;" parent="1" edge="1">
          <mxGeometry width="50" height="50" relative="1" as="geometry">
            <mxPoint x="1450" y="660" as="sourcePoint" />
            <mxPoint x="1449.5" y="580" as="targetPoint" />
          </mxGeometry>
        </mxCell>
        <mxCell id="XLAAWndn-XQMQ2BF4GBF-206" value="" style="endArrow=none;html=1;rounded=0;" parent="1" edge="1">
          <mxGeometry width="50" height="50" relative="1" as="geometry">
            <mxPoint x="1450" y="660" as="sourcePoint" />
            <mxPoint x="1645" y="660" as="targetPoint" />
          </mxGeometry>
        </mxCell>
        <mxCell id="XLAAWndn-XQMQ2BF4GBF-208" value="" style="endArrow=none;html=1;rounded=0;" parent="1" edge="1">
          <mxGeometry width="50" height="50" relative="1" as="geometry">
            <mxPoint x="1645.25" y="660" as="sourcePoint" />
            <mxPoint x="1644.75" y="580" as="targetPoint" />
          </mxGeometry>
        </mxCell>
        <mxCell id="XLAAWndn-XQMQ2BF4GBF-209" value="" style="endArrow=classic;html=1;rounded=0;" parent="1" edge="1">
          <mxGeometry width="50" height="50" relative="1" as="geometry">
            <mxPoint x="1645" y="580" as="sourcePoint" />
            <mxPoint x="1670" y="580" as="targetPoint" />
          </mxGeometry>
        </mxCell>
        <mxCell id="XLAAWndn-XQMQ2BF4GBF-210" value="Inst[14:12]" style="text;html=1;align=center;verticalAlign=middle;resizable=0;points=[];autosize=1;strokeColor=none;fillColor=none;" parent="1" vertex="1">
          <mxGeometry x="1560" y="630" width="80" height="30" as="geometry" />
        </mxCell>
        <mxCell id="XLAAWndn-XQMQ2BF4GBF-211" value="MUX" style="rounded=1;whiteSpace=wrap;html=1;arcSize=50;rotation=90;direction=east;fontColor=light-dark(#000000,#EDEDED);labelBackgroundColor=none;" parent="1" vertex="1">
          <mxGeometry x="1120" y="750" width="70" height="20" as="geometry" />
        </mxCell>
        <mxCell id="XLAAWndn-XQMQ2BF4GBF-212" value="" style="endArrow=none;html=1;rounded=0;" parent="1" edge="1">
          <mxGeometry width="50" height="50" relative="1" as="geometry">
            <mxPoint x="340" y="339.82" as="sourcePoint" />
            <mxPoint x="400" y="339.82" as="targetPoint" />
            <Array as="points">
              <mxPoint x="370" y="339.82" />
            </Array>
          </mxGeometry>
        </mxCell>
        <mxCell id="XLAAWndn-XQMQ2BF4GBF-213" value="" style="endArrow=none;html=1;rounded=0;" parent="1" edge="1">
          <mxGeometry width="50" height="50" relative="1" as="geometry">
            <mxPoint x="400" y="340" as="sourcePoint" />
            <mxPoint x="400" y="740" as="targetPoint" />
            <Array as="points">
              <mxPoint x="400" y="430" />
            </Array>
          </mxGeometry>
        </mxCell>
        <mxCell id="XLAAWndn-XQMQ2BF4GBF-215" value="" style="endArrow=classic;html=1;rounded=0;" parent="1" edge="1">
          <mxGeometry width="50" height="50" relative="1" as="geometry">
            <mxPoint x="400" y="740" as="sourcePoint" />
            <mxPoint x="1140" y="740" as="targetPoint" />
          </mxGeometry>
        </mxCell>
        <mxCell id="XLAAWndn-XQMQ2BF4GBF-216" value="" style="endArrow=none;html=1;rounded=0;" parent="1" edge="1">
          <mxGeometry width="50" height="50" relative="1" as="geometry">
            <mxPoint x="1735" y="420" as="sourcePoint" />
            <mxPoint x="1800" y="420" as="targetPoint" />
          </mxGeometry>
        </mxCell>
        <mxCell id="XLAAWndn-XQMQ2BF4GBF-218" value="" style="endArrow=none;html=1;rounded=0;" parent="1" edge="1">
          <mxGeometry width="50" height="50" relative="1" as="geometry">
            <mxPoint x="1800" y="930" as="sourcePoint" />
            <mxPoint x="1800" y="420" as="targetPoint" />
          </mxGeometry>
        </mxCell>
        <mxCell id="XLAAWndn-XQMQ2BF4GBF-219" value="" style="endArrow=none;html=1;rounded=0;" parent="1" edge="1">
          <mxGeometry width="50" height="50" relative="1" as="geometry">
            <mxPoint x="1080" y="930" as="sourcePoint" />
            <mxPoint x="1800" y="930" as="targetPoint" />
          </mxGeometry>
        </mxCell>
        <mxCell id="XLAAWndn-XQMQ2BF4GBF-220" value="" style="endArrow=none;html=1;rounded=0;" parent="1" edge="1">
          <mxGeometry width="50" height="50" relative="1" as="geometry">
            <mxPoint x="1080" y="930" as="sourcePoint" />
            <mxPoint x="1080" y="780" as="targetPoint" />
          </mxGeometry>
        </mxCell>
        <mxCell id="XLAAWndn-XQMQ2BF4GBF-221" value="" style="endArrow=classic;html=1;rounded=0;" parent="1" edge="1">
          <mxGeometry width="50" height="50" relative="1" as="geometry">
            <mxPoint x="1080" y="780" as="sourcePoint" />
            <mxPoint x="1140" y="780" as="targetPoint" />
          </mxGeometry>
        </mxCell>
        <mxCell id="XLAAWndn-XQMQ2BF4GBF-222" value="" style="endArrow=classic;html=1;rounded=0;entryX=-0.036;entryY=0.519;entryDx=0;entryDy=0;entryPerimeter=0;" parent="1" target="XLAAWndn-XQMQ2BF4GBF-5" edge="1">
          <mxGeometry width="50" height="50" relative="1" as="geometry">
            <mxPoint x="1165" y="760" as="sourcePoint" />
            <mxPoint x="1215" y="710" as="targetPoint" />
          </mxGeometry>
        </mxCell>
        <mxCell id="XLAAWndn-XQMQ2BF4GBF-223" value="" style="endArrow=none;html=1;rounded=0;" parent="1" edge="1">
          <mxGeometry width="50" height="50" relative="1" as="geometry">
            <mxPoint x="1735" y="540" as="sourcePoint" />
            <mxPoint x="1770" y="540" as="targetPoint" />
          </mxGeometry>
        </mxCell>
        <mxCell id="XLAAWndn-XQMQ2BF4GBF-224" value="" style="endArrow=none;html=1;rounded=0;" parent="1" edge="1">
          <mxGeometry width="50" height="50" relative="1" as="geometry">
            <mxPoint x="1770" y="900" as="sourcePoint" />
            <mxPoint x="1770" y="540" as="targetPoint" />
          </mxGeometry>
        </mxCell>
        <mxCell id="XLAAWndn-XQMQ2BF4GBF-225" value="" style="endArrow=none;html=1;rounded=0;" parent="1" edge="1">
          <mxGeometry width="50" height="50" relative="1" as="geometry">
            <mxPoint x="1180" y="900" as="sourcePoint" />
            <mxPoint x="1770" y="900" as="targetPoint" />
          </mxGeometry>
        </mxCell>
        <mxCell id="XLAAWndn-XQMQ2BF4GBF-226" value="" style="endArrow=none;html=1;rounded=0;" parent="1" edge="1">
          <mxGeometry width="50" height="50" relative="1" as="geometry">
            <mxPoint x="1180" y="900" as="sourcePoint" />
            <mxPoint x="1180" y="850" as="targetPoint" />
          </mxGeometry>
        </mxCell>
        <mxCell id="XLAAWndn-XQMQ2BF4GBF-227" value="Write&lt;br&gt;Data" style="text;html=1;align=center;verticalAlign=middle;resizable=0;points=[];autosize=1;strokeColor=none;fillColor=none;" parent="1" vertex="1">
          <mxGeometry x="1215" y="828" width="50" height="40" as="geometry" />
        </mxCell>
        <mxCell id="XLAAWndn-XQMQ2BF4GBF-228" value="" style="endArrow=classic;html=1;rounded=0;entryX=0.004;entryY=0.536;entryDx=0;entryDy=0;entryPerimeter=0;" parent="1" target="XLAAWndn-XQMQ2BF4GBF-227" edge="1">
          <mxGeometry width="50" height="50" relative="1" as="geometry">
            <mxPoint x="1180" y="850" as="sourcePoint" />
            <mxPoint x="1210" y="850" as="targetPoint" />
          </mxGeometry>
        </mxCell>
        <mxCell id="XLAAWndn-XQMQ2BF4GBF-229" value="" style="endArrow=none;html=1;rounded=0;fillColor=#1ba1e2;strokeColor=#006EAF;" parent="1" edge="1">
          <mxGeometry width="50" height="50" relative="1" as="geometry">
            <mxPoint x="1735" y="70" as="sourcePoint" />
            <mxPoint x="1760" y="70" as="targetPoint" />
          </mxGeometry>
        </mxCell>
        <mxCell id="XLAAWndn-XQMQ2BF4GBF-230" value="" style="endArrow=none;html=1;rounded=0;fillColor=#1ba1e2;strokeColor=#006EAF;" parent="1" edge="1">
          <mxGeometry width="50" height="50" relative="1" as="geometry">
            <mxPoint x="1760" y="70" as="sourcePoint" />
            <mxPoint x="1760" y="970" as="targetPoint" />
          </mxGeometry>
        </mxCell>
        <mxCell id="XLAAWndn-XQMQ2BF4GBF-232" value="" style="endArrow=none;html=1;rounded=0;fillColor=#1ba1e2;strokeColor=#006EAF;" parent="1" edge="1">
          <mxGeometry width="50" height="50" relative="1" as="geometry">
            <mxPoint x="1305" y="970" as="sourcePoint" />
            <mxPoint x="1760" y="970" as="targetPoint" />
          </mxGeometry>
        </mxCell>
        <mxCell id="XLAAWndn-XQMQ2BF4GBF-233" value="" style="endArrow=classic;html=1;rounded=0;fillColor=#1ba1e2;strokeColor=#006EAF;entryX=0.75;entryY=1;entryDx=0;entryDy=0;" parent="1" target="XLAAWndn-XQMQ2BF4GBF-4" edge="1">
          <mxGeometry width="50" height="50" relative="1" as="geometry">
            <mxPoint x="1305" y="970" as="sourcePoint" />
            <mxPoint x="1275" y="1001" as="targetPoint" />
          </mxGeometry>
        </mxCell>
        <mxCell id="XLAAWndn-XQMQ2BF4GBF-234" value="MemRead" style="text;html=1;align=center;verticalAlign=middle;resizable=0;points=[];autosize=1;strokeColor=none;fillColor=none;" parent="1" vertex="1">
          <mxGeometry x="1305" y="940" width="80" height="30" as="geometry" />
        </mxCell>
        <mxCell id="XLAAWndn-XQMQ2BF4GBF-235" value="" style="endArrow=none;html=1;rounded=0;fillColor=#1ba1e2;strokeColor=#006EAF;" parent="1" edge="1">
          <mxGeometry width="50" height="50" relative="1" as="geometry">
            <mxPoint x="1735" y="60" as="sourcePoint" />
            <mxPoint x="1780" y="60" as="targetPoint" />
          </mxGeometry>
        </mxCell>
        <mxCell id="XLAAWndn-XQMQ2BF4GBF-237" value="" style="endArrow=none;html=1;rounded=0;fillColor=#1ba1e2;strokeColor=#006EAF;" parent="1" edge="1">
          <mxGeometry width="50" height="50" relative="1" as="geometry">
            <mxPoint x="1780" y="60" as="sourcePoint" />
            <mxPoint x="1780" y="1000" as="targetPoint" />
          </mxGeometry>
        </mxCell>
        <mxCell id="XLAAWndn-XQMQ2BF4GBF-238" value="" style="endArrow=none;html=1;rounded=0;fillColor=#1ba1e2;strokeColor=#006EAF;" parent="1" edge="1">
          <mxGeometry width="50" height="50" relative="1" as="geometry">
            <mxPoint x="1240" y="1000" as="sourcePoint" />
            <mxPoint x="1780" y="1000" as="targetPoint" />
          </mxGeometry>
        </mxCell>
        <mxCell id="XLAAWndn-XQMQ2BF4GBF-239" value="" style="endArrow=classic;html=1;rounded=0;fillColor=#1ba1e2;strokeColor=#006EAF;entryX=0.208;entryY=1;entryDx=0;entryDy=0;entryPerimeter=0;" parent="1" target="XLAAWndn-XQMQ2BF4GBF-4" edge="1">
          <mxGeometry width="50" height="50" relative="1" as="geometry">
            <mxPoint x="1239.71" y="1000" as="sourcePoint" />
            <mxPoint x="1240" y="880" as="targetPoint" />
          </mxGeometry>
        </mxCell>
        <mxCell id="XLAAWndn-XQMQ2BF4GBF-240" value="MemWrite" style="text;html=1;align=center;verticalAlign=middle;resizable=0;points=[];autosize=1;strokeColor=none;fillColor=none;" parent="1" vertex="1">
          <mxGeometry x="1235" y="970" width="80" height="30" as="geometry" />
        </mxCell>
        <mxCell id="XLAAWndn-XQMQ2BF4GBF-241" value="" style="endArrow=none;html=1;rounded=0;" parent="1" edge="1">
          <mxGeometry width="50" height="50" relative="1" as="geometry">
            <mxPoint x="1335" y="800" as="sourcePoint" />
            <mxPoint x="1380" y="800" as="targetPoint" />
          </mxGeometry>
        </mxCell>
        <mxCell id="XLAAWndn-XQMQ2BF4GBF-242" value="" style="endArrow=none;html=1;rounded=0;" parent="1" edge="1">
          <mxGeometry width="50" height="50" relative="1" as="geometry">
            <mxPoint x="1380" y="800" as="sourcePoint" />
            <mxPoint x="1380" y="680" as="targetPoint" />
          </mxGeometry>
        </mxCell>
        <mxCell id="XLAAWndn-XQMQ2BF4GBF-243" value="" style="endArrow=none;html=1;rounded=0;" parent="1" edge="1">
          <mxGeometry width="50" height="50" relative="1" as="geometry">
            <mxPoint x="480" y="680" as="sourcePoint" />
            <mxPoint x="2080" y="680" as="targetPoint" />
          </mxGeometry>
        </mxCell>
        <mxCell id="XLAAWndn-XQMQ2BF4GBF-244" value="" style="endArrow=none;html=1;rounded=0;" parent="1" edge="1">
          <mxGeometry width="50" height="50" relative="1" as="geometry">
            <mxPoint x="480" y="680" as="sourcePoint" />
            <mxPoint x="480" y="370" as="targetPoint" />
          </mxGeometry>
        </mxCell>
        <mxCell id="XLAAWndn-XQMQ2BF4GBF-246" value="&lt;font style=&quot;font-size: 10px;&quot;&gt;Branch/Jump&lt;br&gt;control&lt;/font&gt;" style="ellipse;whiteSpace=wrap;html=1;fillColor=none;fontColor=light-dark(#000000,#EDEDED);strokeColor=#006EAF;textShadow=1;labelBackgroundColor=none;" parent="1" vertex="1">
          <mxGeometry x="1830" y="10" width="70" height="110" as="geometry" />
        </mxCell>
        <mxCell id="XLAAWndn-XQMQ2BF4GBF-248" value="" style="endArrow=classic;html=1;rounded=0;fillColor=#1ba1e2;strokeColor=#006EAF;exitX=0.889;exitY=0.828;exitDx=0;exitDy=0;exitPerimeter=0;entryX=0;entryY=0.364;entryDx=0;entryDy=0;entryPerimeter=0;" parent="1" target="XLAAWndn-XQMQ2BF4GBF-246" edge="1">
          <mxGeometry width="50" height="50" relative="1" as="geometry">
            <mxPoint x="1735" y="49.5" as="sourcePoint" />
            <mxPoint x="1820" y="50" as="targetPoint" />
          </mxGeometry>
        </mxCell>
        <mxCell id="XLAAWndn-XQMQ2BF4GBF-249" value="" style="endArrow=classic;html=1;rounded=0;fillColor=#1ba1e2;strokeColor=#006EAF;exitX=0.889;exitY=0.828;exitDx=0;exitDy=0;exitPerimeter=0;entryX=0;entryY=0.364;entryDx=0;entryDy=0;entryPerimeter=0;" parent="1" edge="1">
          <mxGeometry width="50" height="50" relative="1" as="geometry">
            <mxPoint x="1735" y="40" as="sourcePoint" />
            <mxPoint x="1830" y="40.5" as="targetPoint" />
          </mxGeometry>
        </mxCell>
        <mxCell id="XLAAWndn-XQMQ2BF4GBF-250" value="Branch" style="text;html=1;align=center;verticalAlign=middle;resizable=0;points=[];autosize=1;strokeColor=none;fillColor=none;fontSize=7;" parent="1" vertex="1">
          <mxGeometry x="1780" y="48" width="50" height="20" as="geometry" />
        </mxCell>
        <mxCell id="XLAAWndn-XQMQ2BF4GBF-251" value="Jump" style="text;html=1;align=center;verticalAlign=middle;resizable=0;points=[];autosize=1;strokeColor=none;fillColor=none;fontSize=7;" parent="1" vertex="1">
          <mxGeometry x="1785" y="20" width="40" height="20" as="geometry" />
        </mxCell>
        <mxCell id="XLAAWndn-XQMQ2BF4GBF-252" value="" style="endArrow=none;html=1;rounded=0;" parent="1" edge="1">
          <mxGeometry width="50" height="50" relative="1" as="geometry">
            <mxPoint x="1735" y="580" as="sourcePoint" />
            <mxPoint x="1860" y="580" as="targetPoint" />
          </mxGeometry>
        </mxCell>
        <mxCell id="XLAAWndn-XQMQ2BF4GBF-253" value="" style="endArrow=classic;html=1;rounded=0;entryX=0.429;entryY=1;entryDx=0;entryDy=0;entryPerimeter=0;" parent="1" target="XLAAWndn-XQMQ2BF4GBF-246" edge="1">
          <mxGeometry width="50" height="50" relative="1" as="geometry">
            <mxPoint x="1860" y="580" as="sourcePoint" />
            <mxPoint x="1910" y="530" as="targetPoint" />
          </mxGeometry>
        </mxCell>
        <mxCell id="XLAAWndn-XQMQ2BF4GBF-254" value="" style="endArrow=none;html=1;rounded=0;" parent="1" edge="1">
          <mxGeometry width="50" height="50" relative="1" as="geometry">
            <mxPoint x="1735" y="225" as="sourcePoint" />
            <mxPoint x="1940" y="225" as="targetPoint" />
          </mxGeometry>
        </mxCell>
        <mxCell id="XLAAWndn-XQMQ2BF4GBF-255" value="" style="endArrow=none;html=1;rounded=0;" parent="1" edge="1">
          <mxGeometry width="50" height="50" relative="1" as="geometry">
            <mxPoint x="1940" y="225" as="sourcePoint" />
            <mxPoint x="1940" y="-130" as="targetPoint" />
          </mxGeometry>
        </mxCell>
        <mxCell id="XLAAWndn-XQMQ2BF4GBF-256" value="" style="endArrow=none;html=1;rounded=0;" parent="1" edge="1">
          <mxGeometry width="50" height="50" relative="1" as="geometry">
            <mxPoint x="660" y="-130" as="sourcePoint" />
            <mxPoint x="1940" y="-130" as="targetPoint" />
          </mxGeometry>
        </mxCell>
        <mxCell id="XLAAWndn-XQMQ2BF4GBF-257" value="" style="endArrow=none;html=1;rounded=0;" parent="1" edge="1">
          <mxGeometry width="50" height="50" relative="1" as="geometry">
            <mxPoint x="660" y="50" as="sourcePoint" />
            <mxPoint x="660" y="-130" as="targetPoint" />
          </mxGeometry>
        </mxCell>
        <mxCell id="XLAAWndn-XQMQ2BF4GBF-258" value="" style="endArrow=none;html=1;rounded=0;" parent="1" edge="1">
          <mxGeometry width="50" height="50" relative="1" as="geometry">
            <mxPoint x="160" y="49.84" as="sourcePoint" />
            <mxPoint x="660" y="49.84" as="targetPoint" />
          </mxGeometry>
        </mxCell>
        <mxCell id="XLAAWndn-XQMQ2BF4GBF-259" value="" style="endArrow=none;html=1;rounded=0;" parent="1" edge="1">
          <mxGeometry width="50" height="50" relative="1" as="geometry">
            <mxPoint x="160" y="340" as="sourcePoint" />
            <mxPoint x="160" y="50" as="targetPoint" />
          </mxGeometry>
        </mxCell>
        <mxCell id="XLAAWndn-XQMQ2BF4GBF-260" value="" style="endArrow=classic;html=1;rounded=0;" parent="1" edge="1">
          <mxGeometry width="50" height="50" relative="1" as="geometry">
            <mxPoint x="160" y="340" as="sourcePoint" />
            <mxPoint x="200" y="340" as="targetPoint" />
          </mxGeometry>
        </mxCell>
        <mxCell id="XLAAWndn-XQMQ2BF4GBF-261" value="" style="endArrow=none;html=1;rounded=0;" parent="1" edge="1">
          <mxGeometry width="50" height="50" relative="1" as="geometry">
            <mxPoint x="1800" y="420" as="sourcePoint" />
            <mxPoint x="1980" y="420" as="targetPoint" />
          </mxGeometry>
        </mxCell>
        <mxCell id="XLAAWndn-XQMQ2BF4GBF-262" value="" style="endArrow=none;html=1;rounded=0;" parent="1" edge="1">
          <mxGeometry width="50" height="50" relative="1" as="geometry">
            <mxPoint x="1980" y="420" as="sourcePoint" />
            <mxPoint x="1980" y="-150" as="targetPoint" />
          </mxGeometry>
        </mxCell>
        <mxCell id="XLAAWndn-XQMQ2BF4GBF-263" value="" style="endArrow=none;html=1;rounded=0;" parent="1" edge="1">
          <mxGeometry width="50" height="50" relative="1" as="geometry">
            <mxPoint x="640" y="-150" as="sourcePoint" />
            <mxPoint x="1980" y="-150" as="targetPoint" />
          </mxGeometry>
        </mxCell>
        <mxCell id="XLAAWndn-XQMQ2BF4GBF-264" value="" style="endArrow=none;html=1;rounded=0;" parent="1" edge="1">
          <mxGeometry width="50" height="50" relative="1" as="geometry">
            <mxPoint x="640" y="20" as="sourcePoint" />
            <mxPoint x="640" y="-150" as="targetPoint" />
          </mxGeometry>
        </mxCell>
        <mxCell id="XLAAWndn-XQMQ2BF4GBF-265" value="" style="endArrow=none;html=1;rounded=0;" parent="1" edge="1">
          <mxGeometry width="50" height="50" relative="1" as="geometry">
            <mxPoint x="140" y="20" as="sourcePoint" />
            <mxPoint x="640" y="18" as="targetPoint" />
          </mxGeometry>
        </mxCell>
        <mxCell id="XLAAWndn-XQMQ2BF4GBF-266" value="" style="endArrow=none;html=1;rounded=0;" parent="1" edge="1">
          <mxGeometry width="50" height="50" relative="1" as="geometry">
            <mxPoint x="140" y="360" as="sourcePoint" />
            <mxPoint x="140" y="20" as="targetPoint" />
          </mxGeometry>
        </mxCell>
        <mxCell id="XLAAWndn-XQMQ2BF4GBF-267" value="" style="endArrow=classic;html=1;rounded=0;" parent="1" edge="1">
          <mxGeometry width="50" height="50" relative="1" as="geometry">
            <mxPoint x="140" y="360" as="sourcePoint" />
            <mxPoint x="200" y="360" as="targetPoint" />
          </mxGeometry>
        </mxCell>
        <mxCell id="XLAAWndn-XQMQ2BF4GBF-268" value="" style="endArrow=none;html=1;rounded=0;fillColor=#1ba1e2;strokeColor=#006EAF;" parent="1" edge="1">
          <mxGeometry width="50" height="50" relative="1" as="geometry">
            <mxPoint x="1735" y="320" as="sourcePoint" />
            <mxPoint x="1790" y="320" as="targetPoint" />
          </mxGeometry>
        </mxCell>
        <mxCell id="XLAAWndn-XQMQ2BF4GBF-270" value="" style="endArrow=none;html=1;rounded=0;fillColor=#1ba1e2;strokeColor=#006EAF;" parent="1" edge="1">
          <mxGeometry width="50" height="50" relative="1" as="geometry">
            <mxPoint x="1790" y="320" as="sourcePoint" />
            <mxPoint x="1790" y="70" as="targetPoint" />
          </mxGeometry>
        </mxCell>
        <mxCell id="XLAAWndn-XQMQ2BF4GBF-271" value="" style="endArrow=classic;html=1;rounded=0;fillColor=#1ba1e2;strokeColor=#006EAF;entryX=0;entryY=0.545;entryDx=0;entryDy=0;entryPerimeter=0;" parent="1" target="XLAAWndn-XQMQ2BF4GBF-246" edge="1">
          <mxGeometry width="50" height="50" relative="1" as="geometry">
            <mxPoint x="1790" y="70" as="sourcePoint" />
            <mxPoint x="1880" y="80.5" as="targetPoint" />
          </mxGeometry>
        </mxCell>
        <mxCell id="XLAAWndn-XQMQ2BF4GBF-272" value="" style="endArrow=none;html=1;rounded=0;fillColor=#1ba1e2;strokeColor=#006EAF;" parent="1" edge="1">
          <mxGeometry width="50" height="50" relative="1" as="geometry">
            <mxPoint x="1735" y="329.52" as="sourcePoint" />
            <mxPoint x="1800" y="330" as="targetPoint" />
          </mxGeometry>
        </mxCell>
        <mxCell id="XLAAWndn-XQMQ2BF4GBF-273" value="" style="endArrow=none;html=1;rounded=0;fillColor=#1ba1e2;strokeColor=#006EAF;" parent="1" edge="1">
          <mxGeometry width="50" height="50" relative="1" as="geometry">
            <mxPoint x="1800" y="330" as="sourcePoint" />
            <mxPoint x="1800" y="80" as="targetPoint" />
          </mxGeometry>
        </mxCell>
        <mxCell id="XLAAWndn-XQMQ2BF4GBF-274" value="" style="endArrow=classic;html=1;rounded=0;fillColor=#1ba1e2;strokeColor=#006EAF;" parent="1" edge="1">
          <mxGeometry width="50" height="50" relative="1" as="geometry">
            <mxPoint x="1800" y="80" as="sourcePoint" />
            <mxPoint x="1830" y="80" as="targetPoint" />
          </mxGeometry>
        </mxCell>
        <mxCell id="XLAAWndn-XQMQ2BF4GBF-275" value="" style="endArrow=none;html=1;rounded=0;fillColor=#1ba1e2;strokeColor=#006EAF;" parent="1" edge="1">
          <mxGeometry width="50" height="50" relative="1" as="geometry">
            <mxPoint x="1735" y="339.76" as="sourcePoint" />
            <mxPoint x="1810" y="340" as="targetPoint" />
          </mxGeometry>
        </mxCell>
        <mxCell id="XLAAWndn-XQMQ2BF4GBF-276" value="" style="endArrow=none;html=1;rounded=0;fillColor=#1ba1e2;strokeColor=#006EAF;" parent="1" edge="1">
          <mxGeometry width="50" height="50" relative="1" as="geometry">
            <mxPoint x="1810" y="340" as="sourcePoint" />
            <mxPoint x="1810" y="90" as="targetPoint" />
          </mxGeometry>
        </mxCell>
        <mxCell id="XLAAWndn-XQMQ2BF4GBF-277" value="" style="endArrow=classic;html=1;rounded=0;fillColor=#1ba1e2;strokeColor=#006EAF;entryX=0.047;entryY=0.724;entryDx=0;entryDy=0;entryPerimeter=0;" parent="1" target="XLAAWndn-XQMQ2BF4GBF-246" edge="1">
          <mxGeometry width="50" height="50" relative="1" as="geometry">
            <mxPoint x="1810" y="90" as="sourcePoint" />
            <mxPoint x="1830" y="90" as="targetPoint" />
          </mxGeometry>
        </mxCell>
        <mxCell id="XLAAWndn-XQMQ2BF4GBF-278" value="" style="endArrow=none;html=1;rounded=0;fillColor=#1ba1e2;strokeColor=#006EAF;" parent="1" edge="1">
          <mxGeometry width="50" height="50" relative="1" as="geometry">
            <mxPoint x="1735" y="349.67999999999995" as="sourcePoint" />
            <mxPoint x="1820" y="350" as="targetPoint" />
          </mxGeometry>
        </mxCell>
        <mxCell id="XLAAWndn-XQMQ2BF4GBF-279" value="" style="endArrow=none;html=1;rounded=0;fillColor=#1ba1e2;strokeColor=#006EAF;" parent="1" edge="1">
          <mxGeometry width="50" height="50" relative="1" as="geometry">
            <mxPoint x="1820" y="350" as="sourcePoint" />
            <mxPoint x="1820" y="100" as="targetPoint" />
          </mxGeometry>
        </mxCell>
        <mxCell id="XLAAWndn-XQMQ2BF4GBF-280" value="" style="endArrow=classic;html=1;rounded=0;fillColor=#1ba1e2;strokeColor=#006EAF;entryX=0.079;entryY=0.817;entryDx=0;entryDy=0;entryPerimeter=0;" parent="1" target="XLAAWndn-XQMQ2BF4GBF-246" edge="1">
          <mxGeometry width="50" height="50" relative="1" as="geometry">
            <mxPoint x="1820" y="100" as="sourcePoint" />
            <mxPoint x="1830" y="100" as="targetPoint" />
          </mxGeometry>
        </mxCell>
        <mxCell id="XLAAWndn-XQMQ2BF4GBF-281" value="" style="endArrow=none;html=1;rounded=0;fillColor=#1ba1e2;strokeColor=#006EAF;exitX=0.5;exitY=0;exitDx=0;exitDy=0;" parent="1" source="XLAAWndn-XQMQ2BF4GBF-246" edge="1">
          <mxGeometry width="50" height="50" relative="1" as="geometry">
            <mxPoint x="1825" y="-55.45" as="sourcePoint" />
            <mxPoint x="1865" y="-170" as="targetPoint" />
          </mxGeometry>
        </mxCell>
        <mxCell id="XLAAWndn-XQMQ2BF4GBF-282" value="" style="endArrow=none;html=1;rounded=0;fillColor=#1ba1e2;strokeColor=#006EAF;" parent="1" edge="1">
          <mxGeometry width="50" height="50" relative="1" as="geometry">
            <mxPoint x="620" y="-170" as="sourcePoint" />
            <mxPoint x="1865" y="-170" as="targetPoint" />
          </mxGeometry>
        </mxCell>
        <mxCell id="XLAAWndn-XQMQ2BF4GBF-283" value="" style="endArrow=none;html=1;rounded=0;fillColor=#1ba1e2;strokeColor=#006EAF;" parent="1" edge="1">
          <mxGeometry width="50" height="50" relative="1" as="geometry">
            <mxPoint x="620" y="-170" as="sourcePoint" />
            <mxPoint x="620" y="-10" as="targetPoint" />
          </mxGeometry>
        </mxCell>
        <mxCell id="XLAAWndn-XQMQ2BF4GBF-284" value="" style="endArrow=none;html=1;rounded=0;fillColor=#1ba1e2;strokeColor=#006EAF;" parent="1" edge="1">
          <mxGeometry width="50" height="50" relative="1" as="geometry">
            <mxPoint x="620" y="-10" as="sourcePoint" />
            <mxPoint x="210" y="-10" as="targetPoint" />
          </mxGeometry>
        </mxCell>
        <mxCell id="XLAAWndn-XQMQ2BF4GBF-285" value="" style="endArrow=classic;html=1;rounded=0;fillColor=#1ba1e2;strokeColor=#006EAF;entryX=0;entryY=0.75;entryDx=0;entryDy=0;" parent="1" target="XLAAWndn-XQMQ2BF4GBF-1" edge="1">
          <mxGeometry width="50" height="50" relative="1" as="geometry">
            <mxPoint x="210" y="-10" as="sourcePoint" />
            <mxPoint x="210" y="300" as="targetPoint" />
          </mxGeometry>
        </mxCell>
        <mxCell id="vUcqNcQ1JHCSAqWo3JDs-1" value="" style="rounded=0;whiteSpace=wrap;html=1;rotation=90;" parent="1" vertex="1">
          <mxGeometry x="1870" y="310" width="530" height="60" as="geometry" />
        </mxCell>
        <mxCell id="vUcqNcQ1JHCSAqWo3JDs-2" value="WB" style="rounded=0;whiteSpace=wrap;rotation=0;fillColor=none;fontColor=light-dark(#000000,#FFFFFF);strokeColor=#006EAF;labelBorderColor=none;labelBackgroundColor=none;" parent="1" vertex="1">
          <mxGeometry x="2105" y="20" width="60" height="60" as="geometry" />
        </mxCell>
        <mxCell id="vUcqNcQ1JHCSAqWo3JDs-3" value="" style="endArrow=none;html=1;rounded=0;" parent="1" edge="1">
          <mxGeometry width="50" height="50" relative="1" as="geometry">
            <mxPoint x="2080" y="680" as="sourcePoint" />
            <mxPoint x="2080" y="360" as="targetPoint" />
          </mxGeometry>
        </mxCell>
        <mxCell id="vUcqNcQ1JHCSAqWo3JDs-4" value="" style="endArrow=classic;html=1;rounded=0;" parent="1" edge="1">
          <mxGeometry width="50" height="50" relative="1" as="geometry">
            <mxPoint x="2080" y="360" as="sourcePoint" />
            <mxPoint x="2100" y="360" as="targetPoint" />
          </mxGeometry>
        </mxCell>
        <mxCell id="vUcqNcQ1JHCSAqWo3JDs-5" value="" style="endArrow=classic;html=1;rounded=0;" parent="1" edge="1">
          <mxGeometry width="50" height="50" relative="1" as="geometry">
            <mxPoint x="1980" y="320" as="sourcePoint" />
            <mxPoint x="2100" y="320" as="targetPoint" />
          </mxGeometry>
        </mxCell>
        <mxCell id="vUcqNcQ1JHCSAqWo3JDs-6" value="" style="endArrow=classic;html=1;rounded=0;" parent="1" edge="1">
          <mxGeometry width="50" height="50" relative="1" as="geometry">
            <mxPoint x="1735" y="520" as="sourcePoint" />
            <mxPoint x="2100" y="520" as="targetPoint" />
          </mxGeometry>
        </mxCell>
        <mxCell id="vUcqNcQ1JHCSAqWo3JDs-7" value="Imm_shift_12" style="text;html=1;align=center;verticalAlign=middle;resizable=0;points=[];autosize=1;strokeColor=none;fillColor=none;" parent="1" vertex="1">
          <mxGeometry x="1980" y="490" width="100" height="30" as="geometry" />
        </mxCell>
        <mxCell id="vUcqNcQ1JHCSAqWo3JDs-8" value="ALU_Result" style="text;html=1;align=center;verticalAlign=middle;resizable=0;points=[];autosize=1;strokeColor=none;fillColor=none;" parent="1" vertex="1">
          <mxGeometry x="2015" y="290" width="90" height="30" as="geometry" />
        </mxCell>
        <mxCell id="vUcqNcQ1JHCSAqWo3JDs-9" value="Data_out" style="text;html=1;align=center;verticalAlign=middle;resizable=0;points=[];autosize=1;strokeColor=none;fillColor=none;" parent="1" vertex="1">
          <mxGeometry x="2035" y="328" width="70" height="30" as="geometry" />
        </mxCell>
        <mxCell id="vUcqNcQ1JHCSAqWo3JDs-10" value="" style="endArrow=classic;html=1;rounded=0;" parent="1" edge="1">
          <mxGeometry width="50" height="50" relative="1" as="geometry">
            <mxPoint x="1735" y="160" as="sourcePoint" />
            <mxPoint x="2100" y="160" as="targetPoint" />
          </mxGeometry>
        </mxCell>
        <mxCell id="vUcqNcQ1JHCSAqWo3JDs-11" value="PC_Next" style="text;html=1;align=center;verticalAlign=middle;resizable=0;points=[];autosize=1;strokeColor=none;fillColor=none;" parent="1" vertex="1">
          <mxGeometry x="2035" y="128" width="70" height="30" as="geometry" />
        </mxCell>
        <mxCell id="vUcqNcQ1JHCSAqWo3JDs-12" value="" style="endArrow=none;html=1;rounded=0;fillColor=#1ba1e2;strokeColor=#006EAF;" parent="1" edge="1">
          <mxGeometry width="50" height="50" relative="1" as="geometry">
            <mxPoint x="1735" y="-1" as="sourcePoint" />
            <mxPoint x="2020" y="-1" as="targetPoint" />
          </mxGeometry>
        </mxCell>
        <mxCell id="vUcqNcQ1JHCSAqWo3JDs-13" value="" style="endArrow=none;html=1;rounded=0;fillColor=#1ba1e2;strokeColor=#006EAF;" parent="1" edge="1">
          <mxGeometry width="50" height="50" relative="1" as="geometry">
            <mxPoint x="2020" y="-1" as="sourcePoint" />
            <mxPoint x="2020" y="49" as="targetPoint" />
          </mxGeometry>
        </mxCell>
        <mxCell id="vUcqNcQ1JHCSAqWo3JDs-14" value="" style="endArrow=classic;html=1;rounded=0;fillColor=#1ba1e2;strokeColor=#006EAF;" parent="1" edge="1">
          <mxGeometry width="50" height="50" relative="1" as="geometry">
            <mxPoint x="2020" y="49" as="sourcePoint" />
            <mxPoint x="2105" y="49" as="targetPoint" />
          </mxGeometry>
        </mxCell>
        <mxCell id="vUcqNcQ1JHCSAqWo3JDs-16" value="MUX" style="rounded=1;whiteSpace=wrap;html=1;arcSize=50;rotation=90;direction=east;fontColor=light-dark(#000000,#EDEDED);labelBackgroundColor=none;" parent="1" vertex="1">
          <mxGeometry x="2191.25" y="328.75" width="147.5" height="20" as="geometry" />
        </mxCell>
        <mxCell id="vUcqNcQ1JHCSAqWo3JDs-17" value="" style="endArrow=none;html=1;rounded=0;" parent="1" edge="1">
          <mxGeometry width="50" height="50" relative="1" as="geometry">
            <mxPoint x="2165" y="160" as="sourcePoint" />
            <mxPoint x="2210" y="160" as="targetPoint" />
          </mxGeometry>
        </mxCell>
        <mxCell id="vUcqNcQ1JHCSAqWo3JDs-18" value="" style="endArrow=none;html=1;rounded=0;" parent="1" edge="1">
          <mxGeometry width="50" height="50" relative="1" as="geometry">
            <mxPoint x="2210" y="280" as="sourcePoint" />
            <mxPoint x="2210" y="160" as="targetPoint" />
          </mxGeometry>
        </mxCell>
        <mxCell id="vUcqNcQ1JHCSAqWo3JDs-19" value="" style="endArrow=classic;html=1;rounded=0;" parent="1" edge="1">
          <mxGeometry width="50" height="50" relative="1" as="geometry">
            <mxPoint x="2210" y="280" as="sourcePoint" />
            <mxPoint x="2252.5" y="280" as="targetPoint" />
          </mxGeometry>
        </mxCell>
        <mxCell id="vUcqNcQ1JHCSAqWo3JDs-20" value="" style="endArrow=classic;html=1;rounded=0;" parent="1" edge="1">
          <mxGeometry width="50" height="50" relative="1" as="geometry">
            <mxPoint x="2165" y="320" as="sourcePoint" />
            <mxPoint x="2250" y="320" as="targetPoint" />
          </mxGeometry>
        </mxCell>
        <mxCell id="vUcqNcQ1JHCSAqWo3JDs-21" value="" style="endArrow=classic;html=1;rounded=0;" parent="1" edge="1">
          <mxGeometry width="50" height="50" relative="1" as="geometry">
            <mxPoint x="2165" y="360" as="sourcePoint" />
            <mxPoint x="2250" y="360" as="targetPoint" />
          </mxGeometry>
        </mxCell>
        <mxCell id="vUcqNcQ1JHCSAqWo3JDs-22" value="" style="endArrow=none;html=1;rounded=0;" parent="1" edge="1">
          <mxGeometry width="50" height="50" relative="1" as="geometry">
            <mxPoint x="2165" y="519.83" as="sourcePoint" />
            <mxPoint x="2210" y="520" as="targetPoint" />
          </mxGeometry>
        </mxCell>
        <mxCell id="vUcqNcQ1JHCSAqWo3JDs-23" value="" style="endArrow=none;html=1;rounded=0;" parent="1" edge="1">
          <mxGeometry width="50" height="50" relative="1" as="geometry">
            <mxPoint x="2210" y="520" as="sourcePoint" />
            <mxPoint x="2210" y="400" as="targetPoint" />
          </mxGeometry>
        </mxCell>
        <mxCell id="vUcqNcQ1JHCSAqWo3JDs-24" value="" style="endArrow=classic;html=1;rounded=0;" parent="1" edge="1">
          <mxGeometry width="50" height="50" relative="1" as="geometry">
            <mxPoint x="2210" y="400" as="sourcePoint" />
            <mxPoint x="2250" y="400" as="targetPoint" />
          </mxGeometry>
        </mxCell>
        <mxCell id="vUcqNcQ1JHCSAqWo3JDs-25" value="" style="endArrow=none;html=1;rounded=0;fillColor=#1ba1e2;strokeColor=#006EAF;" parent="1" edge="1">
          <mxGeometry width="50" height="50" relative="1" as="geometry">
            <mxPoint x="2165" y="49.64" as="sourcePoint" />
            <mxPoint x="2260" y="50" as="targetPoint" />
          </mxGeometry>
        </mxCell>
        <mxCell id="vUcqNcQ1JHCSAqWo3JDs-27" value="" style="endArrow=classic;html=1;rounded=0;fillColor=#1ba1e2;strokeColor=#006EAF;" parent="1" edge="1">
          <mxGeometry width="50" height="50" relative="1" as="geometry">
            <mxPoint x="2260" y="50" as="sourcePoint" />
            <mxPoint x="2260" y="260" as="targetPoint" />
          </mxGeometry>
        </mxCell>
        <mxCell id="vUcqNcQ1JHCSAqWo3JDs-28" value="MemtoReg" style="text;html=1;align=center;verticalAlign=middle;resizable=0;points=[];autosize=1;strokeColor=none;fillColor=none;" parent="1" vertex="1">
          <mxGeometry x="2160" y="20" width="80" height="30" as="geometry" />
        </mxCell>
        <mxCell id="vUcqNcQ1JHCSAqWo3JDs-29" value="" style="endArrow=none;html=1;rounded=0;" parent="1" edge="1">
          <mxGeometry width="50" height="50" relative="1" as="geometry">
            <mxPoint x="2275" y="342.93" as="sourcePoint" />
            <mxPoint x="2350" y="342.93" as="targetPoint" />
          </mxGeometry>
        </mxCell>
        <mxCell id="vUcqNcQ1JHCSAqWo3JDs-30" value="" style="endArrow=none;html=1;rounded=0;" parent="1" edge="1">
          <mxGeometry width="50" height="50" relative="1" as="geometry">
            <mxPoint x="2350" y="690" as="sourcePoint" />
            <mxPoint x="2350" y="343" as="targetPoint" />
          </mxGeometry>
        </mxCell>
        <mxCell id="vUcqNcQ1JHCSAqWo3JDs-31" value="" style="endArrow=none;html=1;rounded=0;" parent="1" edge="1">
          <mxGeometry width="50" height="50" relative="1" as="geometry">
            <mxPoint x="880" y="690" as="sourcePoint" />
            <mxPoint x="2350" y="690" as="targetPoint" />
          </mxGeometry>
        </mxCell>
        <mxCell id="vUcqNcQ1JHCSAqWo3JDs-32" value="" style="endArrow=none;html=1;rounded=0;" parent="1" edge="1">
          <mxGeometry width="50" height="50" relative="1" as="geometry">
            <mxPoint x="880" y="690" as="sourcePoint" />
            <mxPoint x="880" y="380" as="targetPoint" />
          </mxGeometry>
        </mxCell>
        <mxCell id="vUcqNcQ1JHCSAqWo3JDs-33" value="" style="endArrow=classic;html=1;rounded=0;entryX=-0.011;entryY=0.667;entryDx=0;entryDy=0;entryPerimeter=0;" parent="1" target="XLAAWndn-XQMQ2BF4GBF-42" edge="1">
          <mxGeometry width="50" height="50" relative="1" as="geometry">
            <mxPoint x="880" y="380" as="sourcePoint" />
            <mxPoint x="1000" y="380" as="targetPoint" />
          </mxGeometry>
        </mxCell>
        <mxCell id="vUcqNcQ1JHCSAqWo3JDs-34" value="" style="endArrow=none;html=1;rounded=0;" parent="1" edge="1">
          <mxGeometry width="50" height="50" relative="1" as="geometry">
            <mxPoint x="1305" y="600" as="sourcePoint" />
            <mxPoint x="1400" y="600" as="targetPoint" />
          </mxGeometry>
        </mxCell>
        <mxCell id="vUcqNcQ1JHCSAqWo3JDs-35" value="" style="endArrow=none;html=1;rounded=0;" parent="1" edge="1">
          <mxGeometry width="50" height="50" relative="1" as="geometry">
            <mxPoint x="1400" y="670" as="sourcePoint" />
            <mxPoint x="1400" y="600" as="targetPoint" />
          </mxGeometry>
        </mxCell>
        <mxCell id="vUcqNcQ1JHCSAqWo3JDs-36" value="" style="endArrow=none;html=1;rounded=0;" parent="1" edge="1">
          <mxGeometry width="50" height="50" relative="1" as="geometry">
            <mxPoint x="1400" y="670" as="sourcePoint" />
            <mxPoint x="1660" y="670" as="targetPoint" />
          </mxGeometry>
        </mxCell>
        <mxCell id="vUcqNcQ1JHCSAqWo3JDs-37" value="" style="endArrow=none;html=1;rounded=0;" parent="1" edge="1">
          <mxGeometry width="50" height="50" relative="1" as="geometry">
            <mxPoint x="1660" y="670" as="sourcePoint" />
            <mxPoint x="1660" y="600" as="targetPoint" />
          </mxGeometry>
        </mxCell>
        <mxCell id="vUcqNcQ1JHCSAqWo3JDs-38" value="" style="endArrow=classic;html=1;rounded=0;" parent="1" edge="1">
          <mxGeometry width="50" height="50" relative="1" as="geometry">
            <mxPoint x="1660" y="600" as="sourcePoint" />
            <mxPoint x="1670" y="600" as="targetPoint" />
          </mxGeometry>
        </mxCell>
        <mxCell id="vUcqNcQ1JHCSAqWo3JDs-39" value="RegWrite" style="text;html=1;align=center;verticalAlign=middle;resizable=0;points=[];autosize=1;strokeColor=none;fillColor=none;rotation=-90;" parent="1" vertex="1">
          <mxGeometry x="1640" y="630" width="70" height="30" as="geometry" />
        </mxCell>
        <mxCell id="vUcqNcQ1JHCSAqWo3JDs-41" value="" style="endArrow=classic;html=1;rounded=0;" parent="1" edge="1">
          <mxGeometry width="50" height="50" relative="1" as="geometry">
            <mxPoint x="1735" y="600" as="sourcePoint" />
            <mxPoint x="2100" y="600" as="targetPoint" />
          </mxGeometry>
        </mxCell>
        <mxCell id="vUcqNcQ1JHCSAqWo3JDs-42" value="RegWrite" style="text;html=1;align=center;verticalAlign=middle;resizable=0;points=[];autosize=1;strokeColor=none;fillColor=none;rotation=0;" parent="1" vertex="1">
          <mxGeometry x="1995" y="565" width="70" height="30" as="geometry" />
        </mxCell>
        <mxCell id="vUcqNcQ1JHCSAqWo3JDs-43" value="" style="endArrow=none;html=1;rounded=0;" parent="1" edge="1">
          <mxGeometry width="50" height="50" relative="1" as="geometry">
            <mxPoint x="2165" y="600" as="sourcePoint" />
            <mxPoint x="2240" y="600" as="targetPoint" />
          </mxGeometry>
        </mxCell>
        <mxCell id="vUcqNcQ1JHCSAqWo3JDs-44" value="" style="endArrow=none;html=1;rounded=0;" parent="1" edge="1">
          <mxGeometry width="50" height="50" relative="1" as="geometry">
            <mxPoint x="2241" y="720" as="sourcePoint" />
            <mxPoint x="2240" y="600" as="targetPoint" />
          </mxGeometry>
        </mxCell>
        <mxCell id="vUcqNcQ1JHCSAqWo3JDs-45" value="" style="endArrow=none;html=1;rounded=0;" parent="1" edge="1">
          <mxGeometry width="50" height="50" relative="1" as="geometry">
            <mxPoint x="920" y="720" as="sourcePoint" />
            <mxPoint x="2241.25" y="720" as="targetPoint" />
          </mxGeometry>
        </mxCell>
        <mxCell id="vUcqNcQ1JHCSAqWo3JDs-46" value="" style="endArrow=none;html=1;rounded=0;" parent="1" edge="1">
          <mxGeometry width="50" height="50" relative="1" as="geometry">
            <mxPoint x="920" y="720" as="sourcePoint" />
            <mxPoint x="920" y="330" as="targetPoint" />
          </mxGeometry>
        </mxCell>
        <mxCell id="vUcqNcQ1JHCSAqWo3JDs-47" value="" style="endArrow=classic;html=1;rounded=0;entryX=-0.004;entryY=0.648;entryDx=0;entryDy=0;entryPerimeter=0;" parent="1" target="XLAAWndn-XQMQ2BF4GBF-38" edge="1">
          <mxGeometry width="50" height="50" relative="1" as="geometry">
            <mxPoint x="920" y="330" as="sourcePoint" />
            <mxPoint x="1000" y="330" as="targetPoint" />
          </mxGeometry>
        </mxCell>
        <mxCell id="yGsz5LY1LSGUvbyBXUML-1" value="" style="endArrow=none;html=1;rounded=0;fillColor=#1ba1e2;strokeColor=#006EAF;" parent="1" edge="1">
          <mxGeometry width="50" height="50" relative="1" as="geometry">
            <mxPoint x="2165" y="57.800000000000004" as="sourcePoint" />
            <mxPoint x="2300" y="58.01" as="targetPoint" />
          </mxGeometry>
        </mxCell>
        <mxCell id="yGsz5LY1LSGUvbyBXUML-2" value="" style="endArrow=none;html=1;rounded=0;fillColor=#1ba1e2;strokeColor=#006EAF;" parent="1" edge="1">
          <mxGeometry width="50" height="50" relative="1" as="geometry">
            <mxPoint x="2300" y="58" as="sourcePoint" />
            <mxPoint x="2300" y="710" as="targetPoint" />
          </mxGeometry>
        </mxCell>
        <mxCell id="yGsz5LY1LSGUvbyBXUML-3" value="" style="endArrow=none;html=1;rounded=0;fillColor=#1ba1e2;strokeColor=#006EAF;" parent="1" edge="1">
          <mxGeometry width="50" height="50" relative="1" as="geometry">
            <mxPoint x="1100" y="710" as="sourcePoint" />
            <mxPoint x="2300" y="710" as="targetPoint" />
          </mxGeometry>
        </mxCell>
        <mxCell id="yGsz5LY1LSGUvbyBXUML-4" value="" style="endArrow=classic;html=1;rounded=0;fillColor=#1ba1e2;strokeColor=#006EAF;entryX=0.79;entryY=1.012;entryDx=0;entryDy=0;entryPerimeter=0;" parent="1" target="XLAAWndn-XQMQ2BF4GBF-38" edge="1">
          <mxGeometry width="50" height="50" relative="1" as="geometry">
            <mxPoint x="1100" y="710" as="sourcePoint" />
            <mxPoint x="1100.29" y="580" as="targetPoint" />
          </mxGeometry>
        </mxCell>
        <mxCell id="yGsz5LY1LSGUvbyBXUML-5" value="RegWrite" style="text;html=1;align=center;verticalAlign=middle;resizable=0;points=[];autosize=1;strokeColor=none;fillColor=none;" parent="1" vertex="1">
          <mxGeometry x="2165" y="50" width="70" height="30" as="geometry" />
        </mxCell>
        <mxCell id="yGsz5LY1LSGUvbyBXUML-13" value="&lt;font style=&quot;color: light-dark(rgb(0, 0, 0), rgb(255, 255, 255));&quot;&gt;Forwarding&lt;br&gt;Unit&lt;/font&gt;" style="rounded=1;whiteSpace=wrap;html=1;arcSize=50;fillColor=none;fontColor=#ffffff;strokeColor=#006EAF;" parent="1" vertex="1">
          <mxGeometry x="1505" y="790" width="120" height="60" as="geometry" />
        </mxCell>
        <mxCell id="yGsz5LY1LSGUvbyBXUML-14" value="" style="endArrow=none;html=1;rounded=0;fillColor=#1ba1e2;strokeColor=#006EAF;" parent="1" edge="1">
          <mxGeometry width="50" height="50" relative="1" as="geometry">
            <mxPoint x="1640" y="800" as="sourcePoint" />
            <mxPoint x="1640" y="710" as="targetPoint" />
          </mxGeometry>
        </mxCell>
        <mxCell id="yGsz5LY1LSGUvbyBXUML-15" value="" style="endArrow=classic;html=1;rounded=0;fillColor=#1ba1e2;strokeColor=#006EAF;entryX=0.935;entryY=0.166;entryDx=0;entryDy=0;entryPerimeter=0;" parent="1" target="yGsz5LY1LSGUvbyBXUML-13" edge="1">
          <mxGeometry width="50" height="50" relative="1" as="geometry">
            <mxPoint x="1640" y="800" as="sourcePoint" />
            <mxPoint x="1460" y="750" as="targetPoint" />
          </mxGeometry>
        </mxCell>
        <mxCell id="yGsz5LY1LSGUvbyBXUML-16" value="" style="endArrow=none;html=1;rounded=0;fontSize=12;startSize=8;endSize=8;curved=1;" parent="1" edge="1">
          <mxGeometry width="50" height="50" relative="1" as="geometry">
            <mxPoint x="1660" y="810" as="sourcePoint" />
            <mxPoint x="1660" y="720" as="targetPoint" />
          </mxGeometry>
        </mxCell>
        <mxCell id="yGsz5LY1LSGUvbyBXUML-17" value="" style="endArrow=classic;html=1;rounded=0;fontSize=12;startSize=8;endSize=8;curved=1;entryX=0.998;entryY=0.328;entryDx=0;entryDy=0;entryPerimeter=0;" parent="1" target="yGsz5LY1LSGUvbyBXUML-13" edge="1">
          <mxGeometry width="50" height="50" relative="1" as="geometry">
            <mxPoint x="1660" y="810" as="sourcePoint" />
            <mxPoint x="1630" y="800.4102814503206" as="targetPoint" />
          </mxGeometry>
        </mxCell>
        <mxCell id="yGsz5LY1LSGUvbyBXUML-18" value="" style="endArrow=none;html=1;rounded=0;fontSize=12;startSize=8;endSize=8;curved=1;" parent="1" edge="1">
          <mxGeometry width="50" height="50" relative="1" as="geometry">
            <mxPoint x="1305" y="420" as="sourcePoint" />
            <mxPoint x="1310" y="420" as="targetPoint" />
          </mxGeometry>
        </mxCell>
        <mxCell id="yGsz5LY1LSGUvbyBXUML-19" value="" style="endArrow=none;html=1;rounded=0;fontSize=12;startSize=8;endSize=8;curved=1;" parent="1" edge="1">
          <mxGeometry width="50" height="50" relative="1" as="geometry">
            <mxPoint x="1310" y="640" as="sourcePoint" />
            <mxPoint x="1310" y="420" as="targetPoint" />
          </mxGeometry>
        </mxCell>
        <mxCell id="yGsz5LY1LSGUvbyBXUML-20" value="" style="endArrow=none;html=1;rounded=0;fontSize=12;startSize=8;endSize=8;curved=1;" parent="1" edge="1">
          <mxGeometry width="50" height="50" relative="1" as="geometry">
            <mxPoint x="1310" y="640" as="sourcePoint" />
            <mxPoint x="1360" y="640" as="targetPoint" />
          </mxGeometry>
        </mxCell>
        <mxCell id="yGsz5LY1LSGUvbyBXUML-21" value="" style="endArrow=none;html=1;rounded=0;fontSize=12;startSize=8;endSize=8;curved=1;" parent="1" edge="1">
          <mxGeometry width="50" height="50" relative="1" as="geometry">
            <mxPoint x="1360" y="810" as="sourcePoint" />
            <mxPoint x="1360" y="640" as="targetPoint" />
          </mxGeometry>
        </mxCell>
        <mxCell id="yGsz5LY1LSGUvbyBXUML-23" value="" style="endArrow=classic;html=1;rounded=0;fontSize=12;startSize=8;endSize=8;curved=1;entryX=0.001;entryY=0.336;entryDx=0;entryDy=0;entryPerimeter=0;" parent="1" target="yGsz5LY1LSGUvbyBXUML-13" edge="1">
          <mxGeometry width="50" height="50" relative="1" as="geometry">
            <mxPoint x="1360" y="810" as="sourcePoint" />
            <mxPoint x="1490" y="810" as="targetPoint" />
          </mxGeometry>
        </mxCell>
        <mxCell id="yGsz5LY1LSGUvbyBXUML-24" value="" style="endArrow=none;html=1;rounded=0;fontSize=12;startSize=8;endSize=8;curved=1;" parent="1" edge="1">
          <mxGeometry width="50" height="50" relative="1" as="geometry">
            <mxPoint x="1305" y="460" as="sourcePoint" />
            <mxPoint x="1330" y="460" as="targetPoint" />
          </mxGeometry>
        </mxCell>
        <mxCell id="yGsz5LY1LSGUvbyBXUML-25" value="" style="endArrow=none;html=1;rounded=0;fontSize=12;startSize=8;endSize=8;curved=1;" parent="1" edge="1">
          <mxGeometry width="50" height="50" relative="1" as="geometry">
            <mxPoint x="1330" y="620" as="sourcePoint" />
            <mxPoint x="1330" y="460" as="targetPoint" />
          </mxGeometry>
        </mxCell>
        <mxCell id="yGsz5LY1LSGUvbyBXUML-26" value="" style="endArrow=none;html=1;rounded=0;fontSize=12;startSize=8;endSize=8;curved=1;" parent="1" edge="1">
          <mxGeometry width="50" height="50" relative="1" as="geometry">
            <mxPoint x="1330" y="620" as="sourcePoint" />
            <mxPoint x="1390" y="620" as="targetPoint" />
          </mxGeometry>
        </mxCell>
        <mxCell id="yGsz5LY1LSGUvbyBXUML-27" value="" style="endArrow=none;html=1;rounded=0;fontSize=12;startSize=8;endSize=8;curved=1;" parent="1" edge="1">
          <mxGeometry width="50" height="50" relative="1" as="geometry">
            <mxPoint x="1390" y="830" as="sourcePoint" />
            <mxPoint x="1390" y="620" as="targetPoint" />
          </mxGeometry>
        </mxCell>
        <mxCell id="yGsz5LY1LSGUvbyBXUML-28" value="" style="endArrow=classic;html=1;rounded=0;fontSize=12;startSize=8;endSize=8;curved=1;entryX=0;entryY=0.666;entryDx=0;entryDy=0;entryPerimeter=0;" parent="1" target="yGsz5LY1LSGUvbyBXUML-13" edge="1">
          <mxGeometry width="50" height="50" relative="1" as="geometry">
            <mxPoint x="1390" y="830" as="sourcePoint" />
            <mxPoint x="1490" y="830" as="targetPoint" />
          </mxGeometry>
        </mxCell>
        <mxCell id="yGsz5LY1LSGUvbyBXUML-29" value="" style="endArrow=none;html=1;rounded=0;fontSize=12;startSize=8;endSize=8;curved=1;" parent="1" edge="1">
          <mxGeometry width="50" height="50" relative="1" as="geometry">
            <mxPoint x="1320" y="690" as="sourcePoint" />
            <mxPoint x="1320" y="480" as="targetPoint" />
          </mxGeometry>
        </mxCell>
        <mxCell id="yGsz5LY1LSGUvbyBXUML-31" value="" style="endArrow=classic;html=1;rounded=0;fontSize=12;startSize=8;endSize=8;curved=1;" parent="1" edge="1">
          <mxGeometry width="50" height="50" relative="1" as="geometry">
            <mxPoint x="1320" y="480" as="sourcePoint" />
            <mxPoint x="1400" y="480" as="targetPoint" />
          </mxGeometry>
        </mxCell>
        <mxCell id="yGsz5LY1LSGUvbyBXUML-32" value="" style="endArrow=none;html=1;rounded=0;fontSize=12;startSize=8;endSize=8;curved=1;" parent="1" edge="1">
          <mxGeometry width="50" height="50" relative="1" as="geometry">
            <mxPoint x="1370" y="480" as="sourcePoint" />
            <mxPoint x="1370" y="360" as="targetPoint" />
          </mxGeometry>
        </mxCell>
        <mxCell id="yGsz5LY1LSGUvbyBXUML-33" value="" style="endArrow=classic;html=1;rounded=0;fontSize=12;startSize=8;endSize=8;curved=1;" parent="1" edge="1">
          <mxGeometry width="50" height="50" relative="1" as="geometry">
            <mxPoint x="1370" y="360" as="sourcePoint" />
            <mxPoint x="1400" y="360" as="targetPoint" />
          </mxGeometry>
        </mxCell>
        <mxCell id="yGsz5LY1LSGUvbyBXUML-34" value="" style="endArrow=none;html=1;rounded=0;fillColor=#1ba1e2;strokeColor=#006EAF;" parent="1" edge="1">
          <mxGeometry width="50" height="50" relative="1" as="geometry">
            <mxPoint x="1530" y="760" as="sourcePoint" />
            <mxPoint x="1530" y="790" as="targetPoint" />
          </mxGeometry>
        </mxCell>
        <mxCell id="yGsz5LY1LSGUvbyBXUML-35" value="" style="endArrow=none;html=1;rounded=0;fillColor=#1ba1e2;strokeColor=#006EAF;" parent="1" edge="1">
          <mxGeometry width="50" height="50" relative="1" as="geometry">
            <mxPoint x="1415" y="760" as="sourcePoint" />
            <mxPoint x="1530" y="760" as="targetPoint" />
          </mxGeometry>
        </mxCell>
        <mxCell id="yGsz5LY1LSGUvbyBXUML-36" value="" style="endArrow=classic;html=1;rounded=0;fillColor=#1ba1e2;strokeColor=#006EAF;" parent="1" edge="1">
          <mxGeometry width="50" height="50" relative="1" as="geometry">
            <mxPoint x="1414.71" y="760" as="sourcePoint" />
            <mxPoint x="1415" y="500" as="targetPoint" />
          </mxGeometry>
        </mxCell>
        <mxCell id="yGsz5LY1LSGUvbyBXUML-37" value="Forward B" style="text;html=1;align=center;verticalAlign=middle;resizable=0;points=[];autosize=1;strokeColor=none;fillColor=none;fontSize=7;" parent="1" vertex="1">
          <mxGeometry x="1410" y="740" width="60" height="20" as="geometry" />
        </mxCell>
        <mxCell id="yGsz5LY1LSGUvbyBXUML-38" value="" style="endArrow=none;html=1;rounded=0;fillColor=#1ba1e2;strokeColor=#006EAF;" parent="1" edge="1">
          <mxGeometry width="50" height="50" relative="1" as="geometry">
            <mxPoint x="1600" y="280" as="sourcePoint" />
            <mxPoint x="1600" y="790" as="targetPoint" />
          </mxGeometry>
        </mxCell>
        <mxCell id="yGsz5LY1LSGUvbyBXUML-39" value="" style="endArrow=none;html=1;rounded=0;fillColor=#1ba1e2;strokeColor=#006EAF;" parent="1" edge="1">
          <mxGeometry width="50" height="50" relative="1" as="geometry">
            <mxPoint x="1420" y="279.76" as="sourcePoint" />
            <mxPoint x="1600" y="279.76" as="targetPoint" />
          </mxGeometry>
        </mxCell>
        <mxCell id="yGsz5LY1LSGUvbyBXUML-40" value="" style="endArrow=classic;html=1;rounded=0;fillColor=#1ba1e2;strokeColor=#006EAF;exitX=0.889;exitY=0.828;exitDx=0;exitDy=0;exitPerimeter=0;entryX=0;entryY=0.25;entryDx=0;entryDy=0;" parent="1" target="XLAAWndn-XQMQ2BF4GBF-107" edge="1">
          <mxGeometry width="50" height="50" relative="1" as="geometry">
            <mxPoint x="1420" y="280" as="sourcePoint" />
            <mxPoint x="1420" y="300" as="targetPoint" />
          </mxGeometry>
        </mxCell>
        <mxCell id="yGsz5LY1LSGUvbyBXUML-41" value="Forward A" style="text;html=1;align=center;verticalAlign=middle;resizable=0;points=[];autosize=1;strokeColor=none;fillColor=none;fontSize=7;rotation=-90;" parent="1" vertex="1">
          <mxGeometry x="1560" y="750" width="60" height="20" as="geometry" />
        </mxCell>
        <mxCell id="yGsz5LY1LSGUvbyBXUML-42" value="&lt;font style=&quot;color: light-dark(rgb(0, 0, 0), rgb(255, 255, 255));&quot;&gt;Hazard&lt;/font&gt;&lt;div&gt;&lt;font style=&quot;color: light-dark(rgb(0, 0, 0), rgb(255, 255, 255));&quot;&gt;Detection&lt;/font&gt;&lt;/div&gt;&lt;div&gt;&lt;font style=&quot;color: light-dark(rgb(0, 0, 0), rgb(255, 255, 255));&quot;&gt;Unit&lt;/font&gt;&lt;/div&gt;" style="rounded=1;whiteSpace=wrap;html=1;arcSize=50;fillColor=none;fontColor=#ffffff;strokeColor=#006EAF;" parent="1" vertex="1">
          <mxGeometry x="680" y="-270" width="120" height="60" as="geometry" />
        </mxCell>
        <mxCell id="yGsz5LY1LSGUvbyBXUML-47" value="MUX" style="rounded=1;whiteSpace=wrap;html=1;arcSize=50;rotation=90;direction=east;fontColor=light-dark(#000000,#EDEDED);labelBackgroundColor=none;" parent="1" vertex="1">
          <mxGeometry x="1051.25" y="-11.25" width="157.5" height="20" as="geometry" />
        </mxCell>
        <mxCell id="yGsz5LY1LSGUvbyBXUML-48" value="" style="endArrow=classic;html=1;rounded=0;fillColor=#1ba1e2;strokeColor=#006EAF;" parent="1" edge="1">
          <mxGeometry width="50" height="50" relative="1" as="geometry">
            <mxPoint x="1190" y="6.661338147750939e-16" as="sourcePoint" />
            <mxPoint x="1240" y="6.661338147750939e-16" as="targetPoint" />
          </mxGeometry>
        </mxCell>
        <mxCell id="yGsz5LY1LSGUvbyBXUML-49" value="" style="endArrow=none;html=1;rounded=0;fillColor=#1ba1e2;strokeColor=#006EAF;" parent="1" edge="1">
          <mxGeometry width="50" height="50" relative="1" as="geometry">
            <mxPoint x="1190" y="-70" as="sourcePoint" />
            <mxPoint x="1190" y="50" as="targetPoint" />
          </mxGeometry>
        </mxCell>
        <mxCell id="yGsz5LY1LSGUvbyBXUML-50" value="" style="endArrow=none;html=1;rounded=0;fillColor=#1ba1e2;strokeColor=#006EAF;" parent="1" edge="1">
          <mxGeometry width="50" height="50" relative="1" as="geometry">
            <mxPoint x="1190" y="0.3600000000000001" as="sourcePoint" />
            <mxPoint x="1140" as="targetPoint" />
          </mxGeometry>
        </mxCell>
        <mxCell id="yGsz5LY1LSGUvbyBXUML-51" value="" style="endArrow=classic;html=1;rounded=0;fillColor=#1ba1e2;strokeColor=#006EAF;" parent="1" edge="1">
          <mxGeometry width="50" height="50" relative="1" as="geometry">
            <mxPoint x="1080" y="53" as="sourcePoint" />
            <mxPoint x="1120" y="52.66" as="targetPoint" />
          </mxGeometry>
        </mxCell>
        <mxCell id="yGsz5LY1LSGUvbyBXUML-52" value="0" style="text;html=1;align=center;verticalAlign=middle;resizable=0;points=[];autosize=1;strokeColor=none;fillColor=none;fontColor=light-dark(#000000,#14FAFF);" parent="1" vertex="1">
          <mxGeometry x="1055" y="38" width="30" height="30" as="geometry" />
        </mxCell>
        <mxCell id="yGsz5LY1LSGUvbyBXUML-53" value="" style="endArrow=none;html=1;rounded=0;fillColor=#1ba1e2;strokeColor=#006EAF;" parent="1" edge="1">
          <mxGeometry width="50" height="50" relative="1" as="geometry">
            <mxPoint x="750" y="-210" as="sourcePoint" />
            <mxPoint x="750" y="-180" as="targetPoint" />
          </mxGeometry>
        </mxCell>
        <mxCell id="yGsz5LY1LSGUvbyBXUML-54" value="" style="endArrow=none;html=1;rounded=0;fillColor=#1ba1e2;strokeColor=#006EAF;" parent="1" edge="1">
          <mxGeometry width="50" height="50" relative="1" as="geometry">
            <mxPoint x="1130" y="-180" as="sourcePoint" />
            <mxPoint x="750" y="-180" as="targetPoint" />
          </mxGeometry>
        </mxCell>
        <mxCell id="yGsz5LY1LSGUvbyBXUML-55" value="" style="endArrow=classic;html=1;rounded=0;fillColor=#1ba1e2;strokeColor=#006EAF;entryX=0;entryY=0.5;entryDx=0;entryDy=0;" parent="1" target="yGsz5LY1LSGUvbyBXUML-47" edge="1">
          <mxGeometry width="50" height="50" relative="1" as="geometry">
            <mxPoint x="1129.6" y="-180" as="sourcePoint" />
            <mxPoint x="1130" y="-90" as="targetPoint" />
          </mxGeometry>
        </mxCell>
        <mxCell id="yGsz5LY1LSGUvbyBXUML-56" value="Flush" style="text;html=1;align=center;verticalAlign=middle;resizable=0;points=[];autosize=1;strokeColor=none;fillColor=none;fontSize=16;" parent="1" vertex="1">
          <mxGeometry x="795" y="-210" width="60" height="30" as="geometry" />
        </mxCell>
        <mxCell id="yGsz5LY1LSGUvbyBXUML-57" value="Sclk" style="text;html=1;align=center;verticalAlign=middle;resizable=0;points=[];autosize=1;strokeColor=none;fillColor=none;fontSize=16;" parent="1" vertex="1">
          <mxGeometry x="1130" y="850" width="50" height="30" as="geometry" />
        </mxCell>
        <mxCell id="yGsz5LY1LSGUvbyBXUML-58" value="" style="endArrow=classic;html=1;rounded=0;fontSize=12;startSize=8;endSize=8;curved=1;" parent="1" edge="1">
          <mxGeometry width="50" height="50" relative="1" as="geometry">
            <mxPoint x="1154.5" y="858" as="sourcePoint" />
            <mxPoint x="1154.5" y="800" as="targetPoint" />
          </mxGeometry>
        </mxCell>
        <mxCell id="yGsz5LY1LSGUvbyBXUML-59" value="~Sclk" style="text;html=1;align=center;verticalAlign=middle;resizable=0;points=[];autosize=1;strokeColor=none;fillColor=none;fontSize=16;" parent="1" vertex="1">
          <mxGeometry x="800" y="655" width="60" height="30" as="geometry" />
        </mxCell>
        <mxCell id="yGsz5LY1LSGUvbyBXUML-60" value="" style="endArrow=classic;html=1;rounded=0;fontSize=12;startSize=8;endSize=8;curved=1;" parent="1" edge="1">
          <mxGeometry width="50" height="50" relative="1" as="geometry">
            <mxPoint x="829.5" y="663" as="sourcePoint" />
            <mxPoint x="829.5" y="605" as="targetPoint" />
          </mxGeometry>
        </mxCell>
        <mxCell id="yGsz5LY1LSGUvbyBXUML-61" value="~Sclk" style="text;html=1;align=center;verticalAlign=middle;resizable=0;points=[];autosize=1;strokeColor=none;fillColor=none;fontSize=16;" parent="1" vertex="1">
          <mxGeometry x="1046.25" y="110" width="60" height="30" as="geometry" />
        </mxCell>
        <mxCell id="yGsz5LY1LSGUvbyBXUML-62" value="" style="endArrow=classic;html=1;rounded=0;fontSize=12;startSize=8;endSize=8;curved=1;entryX=0.59;entryY=0;entryDx=0;entryDy=0;entryPerimeter=0;exitX=0.497;exitY=1.08;exitDx=0;exitDy=0;exitPerimeter=0;" parent="1" source="yGsz5LY1LSGUvbyBXUML-61" target="XLAAWndn-XQMQ2BF4GBF-38" edge="1">
          <mxGeometry width="50" height="50" relative="1" as="geometry">
            <mxPoint x="1076" y="170" as="sourcePoint" />
            <mxPoint x="1075.75" y="80" as="targetPoint" />
          </mxGeometry>
        </mxCell>
        <mxCell id="yGsz5LY1LSGUvbyBXUML-63" value="Sclk" style="text;html=1;align=center;verticalAlign=middle;resizable=0;points=[];autosize=1;strokeColor=none;fillColor=none;fontSize=16;" parent="1" vertex="1">
          <mxGeometry x="1225" y="650" width="50" height="30" as="geometry" />
        </mxCell>
        <mxCell id="yGsz5LY1LSGUvbyBXUML-64" value="" style="endArrow=classic;html=1;rounded=0;fontSize=12;startSize=8;endSize=8;curved=1;" parent="1" edge="1">
          <mxGeometry width="50" height="50" relative="1" as="geometry">
            <mxPoint x="1269.5" y="668" as="sourcePoint" />
            <mxPoint x="1269.5" y="610" as="targetPoint" />
          </mxGeometry>
        </mxCell>
        <mxCell id="yGsz5LY1LSGUvbyBXUML-65" value="~Sclk" style="text;html=1;align=center;verticalAlign=middle;resizable=0;points=[];autosize=1;strokeColor=none;fillColor=none;fontSize=16;" parent="1" vertex="1">
          <mxGeometry x="1675" y="655" width="60" height="30" as="geometry" />
        </mxCell>
        <mxCell id="yGsz5LY1LSGUvbyBXUML-66" value="" style="endArrow=classic;html=1;rounded=0;fontSize=12;startSize=8;endSize=8;curved=1;" parent="1" edge="1">
          <mxGeometry width="50" height="50" relative="1" as="geometry">
            <mxPoint x="1704.5" y="663" as="sourcePoint" />
            <mxPoint x="1704.5" y="605" as="targetPoint" />
          </mxGeometry>
        </mxCell>
        <mxCell id="yGsz5LY1LSGUvbyBXUML-67" value="Sclk" style="text;html=1;align=center;verticalAlign=middle;resizable=0;points=[];autosize=1;strokeColor=none;fillColor=none;fontSize=16;" parent="1" vertex="1">
          <mxGeometry x="1250" y="940" width="50" height="30" as="geometry" />
        </mxCell>
        <mxCell id="yGsz5LY1LSGUvbyBXUML-68" value="" style="endArrow=classic;html=1;rounded=0;fontSize=12;startSize=8;endSize=8;curved=1;exitX=0.493;exitY=0.034;exitDx=0;exitDy=0;exitPerimeter=0;" parent="1" source="yGsz5LY1LSGUvbyBXUML-67" edge="1">
          <mxGeometry width="50" height="50" relative="1" as="geometry">
            <mxPoint x="1274.5" y="928" as="sourcePoint" />
            <mxPoint x="1274.5" y="870" as="targetPoint" />
          </mxGeometry>
        </mxCell>
        <mxCell id="yGsz5LY1LSGUvbyBXUML-69" value="Sclk" style="text;html=1;align=center;verticalAlign=middle;resizable=0;points=[];autosize=1;strokeColor=none;fillColor=none;fontSize=16;" parent="1" vertex="1">
          <mxGeometry x="2110" y="655" width="50" height="30" as="geometry" />
        </mxCell>
        <mxCell id="yGsz5LY1LSGUvbyBXUML-70" value="" style="endArrow=classic;html=1;rounded=0;fontSize=12;startSize=8;endSize=8;curved=1;" parent="1" edge="1">
          <mxGeometry width="50" height="50" relative="1" as="geometry">
            <mxPoint x="2134.5" y="663" as="sourcePoint" />
            <mxPoint x="2134.5" y="605" as="targetPoint" />
          </mxGeometry>
        </mxCell>
        <mxCell id="racadsnrd086EHAKxHlA-2" value="Sclk" style="text;html=1;align=center;verticalAlign=middle;resizable=0;points=[];autosize=1;strokeColor=none;fillColor=none;fontSize=16;" parent="1" vertex="1">
          <mxGeometry x="280" y="455" width="50" height="30" as="geometry" />
        </mxCell>
        <mxCell id="racadsnrd086EHAKxHlA-3" value="" style="endArrow=classic;html=1;rounded=0;fontSize=12;startSize=8;endSize=8;curved=1;" parent="1" edge="1">
          <mxGeometry width="50" height="50" relative="1" as="geometry">
            <mxPoint x="304.5" y="463" as="sourcePoint" />
            <mxPoint x="304.5" y="405" as="targetPoint" />
          </mxGeometry>
        </mxCell>
        <mxCell id="racadsnrd086EHAKxHlA-5" value="PC&lt;br&gt;Enable" style="rounded=0;whiteSpace=wrap;html=1;" parent="1" vertex="1">
          <mxGeometry x="590" y="508" width="50" height="85" as="geometry" />
        </mxCell>
        <mxCell id="racadsnrd086EHAKxHlA-6" value="~Sclk" style="text;html=1;align=center;verticalAlign=middle;resizable=0;points=[];autosize=1;strokeColor=none;fillColor=none;fontSize=16;" parent="1" vertex="1">
          <mxGeometry x="585" y="643" width="60" height="30" as="geometry" />
        </mxCell>
        <mxCell id="racadsnrd086EHAKxHlA-7" value="" style="endArrow=classic;html=1;rounded=0;fontSize=12;startSize=8;endSize=8;curved=1;" parent="1" edge="1">
          <mxGeometry width="50" height="50" relative="1" as="geometry">
            <mxPoint x="614.5" y="651" as="sourcePoint" />
            <mxPoint x="614.5" y="593" as="targetPoint" />
          </mxGeometry>
        </mxCell>
        <mxCell id="racadsnrd086EHAKxHlA-8" value="" style="endArrow=none;html=1;rounded=0;" parent="1" edge="1">
          <mxGeometry width="50" height="50" relative="1" as="geometry">
            <mxPoint x="760" y="560" as="sourcePoint" />
            <mxPoint x="760" y="380" as="targetPoint" />
          </mxGeometry>
        </mxCell>
        <mxCell id="racadsnrd086EHAKxHlA-9" value="" style="endArrow=classic;html=1;rounded=0;entryX=1.064;entryY=0.612;entryDx=0;entryDy=0;entryPerimeter=0;" parent="1" target="racadsnrd086EHAKxHlA-5" edge="1">
          <mxGeometry width="50" height="50" relative="1" as="geometry">
            <mxPoint x="760" y="560" as="sourcePoint" />
            <mxPoint x="710" y="560" as="targetPoint" />
          </mxGeometry>
        </mxCell>
        <mxCell id="racadsnrd086EHAKxHlA-11" value="" style="endArrow=classic;html=1;rounded=0;" parent="1" edge="1">
          <mxGeometry width="50" height="50" relative="1" as="geometry">
            <mxPoint x="340" y="555" as="sourcePoint" />
            <mxPoint x="340" y="410" as="targetPoint" />
          </mxGeometry>
        </mxCell>
        <mxCell id="racadsnrd086EHAKxHlA-12" value="" style="endArrow=none;html=1;rounded=0;" parent="1" edge="1">
          <mxGeometry width="50" height="50" relative="1" as="geometry">
            <mxPoint x="340" y="555" as="sourcePoint" />
            <mxPoint x="590" y="555" as="targetPoint" />
          </mxGeometry>
        </mxCell>
        <mxCell id="racadsnrd086EHAKxHlA-13" value="MEM/WB" style="text;html=1;align=center;verticalAlign=middle;resizable=0;points=[];autosize=1;strokeColor=none;fillColor=none;" parent="1" vertex="1">
          <mxGeometry x="2100" y="-11.25" width="70" height="30" as="geometry" />
        </mxCell>
        <mxCell id="racadsnrd086EHAKxHlA-14" value="" style="endArrow=none;html=1;rounded=0;" parent="1" edge="1">
          <mxGeometry width="50" height="50" relative="1" as="geometry">
            <mxPoint x="1840" y="860" as="sourcePoint" />
            <mxPoint x="1840" y="580" as="targetPoint" />
          </mxGeometry>
        </mxCell>
        <mxCell id="racadsnrd086EHAKxHlA-15" value="" style="endArrow=classic;html=1;rounded=0;" parent="1" edge="1">
          <mxGeometry width="50" height="50" relative="1" as="geometry">
            <mxPoint x="1840" y="860" as="sourcePoint" />
            <mxPoint x="1340" y="860" as="targetPoint" />
          </mxGeometry>
        </mxCell>
        <mxCell id="racadsnrd086EHAKxHlA-22" value="&lt;font style=&quot;font-size: 5px;&quot;&gt;OP&lt;br&gt;Reg&lt;/font&gt;" style="rounded=0;whiteSpace=wrap;html=1;" parent="1" vertex="1">
          <mxGeometry x="535" y="230" width="30" height="32.5" as="geometry" />
        </mxCell>
        <mxCell id="racadsnrd086EHAKxHlA-23" value="&lt;font style=&quot;font-size: 7px;&quot;&gt;~Sclk&lt;/font&gt;" style="text;html=1;align=center;verticalAlign=middle;resizable=0;points=[];autosize=1;strokeColor=none;fillColor=none;fontSize=16;" parent="1" vertex="1">
          <mxGeometry x="540" y="290" width="40" height="30" as="geometry" />
        </mxCell>
        <mxCell id="racadsnrd086EHAKxHlA-24" value="" style="endArrow=classic;html=1;rounded=0;fontSize=12;startSize=8;endSize=8;curved=1;" parent="1" edge="1">
          <mxGeometry width="50" height="50" relative="1" as="geometry">
            <mxPoint x="559" y="304" as="sourcePoint" />
            <mxPoint x="559" y="262" as="targetPoint" />
          </mxGeometry>
        </mxCell>
        <mxCell id="racadsnrd086EHAKxHlA-25" value="" style="endArrow=none;html=1;rounded=0;" parent="1" edge="1">
          <mxGeometry width="50" height="50" relative="1" as="geometry">
            <mxPoint x="520" y="250" as="sourcePoint" />
            <mxPoint x="535" y="250" as="targetPoint" />
          </mxGeometry>
        </mxCell>
        <mxCell id="racadsnrd086EHAKxHlA-26" value="" style="endArrow=classic;html=1;rounded=0;" parent="1" edge="1">
          <mxGeometry width="50" height="50" relative="1" as="geometry">
            <mxPoint x="520" y="250" as="sourcePoint" />
            <mxPoint x="520" y="235" as="targetPoint" />
          </mxGeometry>
        </mxCell>
        <mxCell id="xSEdhX6ruMQV9fdttBFj-2" value="PC_Next" style="text;html=1;align=center;verticalAlign=middle;resizable=0;points=[];autosize=1;strokeColor=none;fillColor=none;" parent="1" vertex="1">
          <mxGeometry x="725" y="128" width="70" height="30" as="geometry" />
        </mxCell>
        <mxCell id="xSEdhX6ruMQV9fdttBFj-3" value="PC" style="text;html=1;align=center;verticalAlign=middle;resizable=0;points=[];autosize=1;strokeColor=none;fillColor=none;" parent="1" vertex="1">
          <mxGeometry x="755" y="250" width="40" height="30" as="geometry" />
        </mxCell>
        <mxCell id="xSEdhX6ruMQV9fdttBFj-4" value="" style="endArrow=none;html=1;rounded=0;fontSize=12;startSize=8;endSize=8;curved=1;" parent="1" edge="1">
          <mxGeometry width="50" height="50" relative="1" as="geometry">
            <mxPoint x="710" y="380" as="sourcePoint" />
            <mxPoint x="780" y="380" as="targetPoint" />
          </mxGeometry>
        </mxCell>
        <mxCell id="xSEdhX6ruMQV9fdttBFj-5" value="" style="endArrow=none;html=1;rounded=0;fontSize=12;startSize=8;endSize=8;curved=1;" parent="1" edge="1">
          <mxGeometry width="50" height="50" relative="1" as="geometry">
            <mxPoint x="780" y="380" as="sourcePoint" />
            <mxPoint x="780" y="300" as="targetPoint" />
          </mxGeometry>
        </mxCell>
        <mxCell id="xSEdhX6ruMQV9fdttBFj-6" value="" style="endArrow=classic;html=1;rounded=0;fontSize=12;startSize=8;endSize=8;curved=1;entryX=0.424;entryY=1.002;entryDx=0;entryDy=0;entryPerimeter=0;" parent="1" target="XLAAWndn-XQMQ2BF4GBF-33" edge="1">
          <mxGeometry width="50" height="50" relative="1" as="geometry">
            <mxPoint x="780" y="300" as="sourcePoint" />
            <mxPoint x="830" y="250" as="targetPoint" />
          </mxGeometry>
        </mxCell>
        <mxCell id="xSEdhX6ruMQV9fdttBFj-7" value="Inst[31:0]" style="text;html=1;align=center;verticalAlign=middle;resizable=0;points=[];autosize=1;strokeColor=none;fillColor=none;fontSize=11;" parent="1" vertex="1">
          <mxGeometry x="710" y="290" width="70" height="30" as="geometry" />
        </mxCell>
        <mxCell id="KvkOa3itgD-affmYzduW-2" value="" style="endArrow=classic;html=1;rounded=0;fillColor=#1ba1e2;strokeColor=#006EAF;entryX=0.338;entryY=1;entryDx=0;entryDy=0;entryPerimeter=0;" edge="1" parent="1" target="yGsz5LY1LSGUvbyBXUML-42">
          <mxGeometry width="50" height="50" relative="1" as="geometry">
            <mxPoint x="720" y="-170" as="sourcePoint" />
            <mxPoint x="650" y="-290" as="targetPoint" />
          </mxGeometry>
        </mxCell>
      </root>
    </mxGraphModel>
  </diagram>
</mxfile>
